<?xml version="1.0" encoding="utf-8"?>
<!-- Generator: Adobe Illustrator 17.1.0, SVG Export Plug-In . SVG Version: 6.00 Build 0)  -->
<!DOCTYPE svg PUBLIC "-//W3C//DTD SVG 1.1//EN" "http://www.w3.org/Graphics/SVG/1.1/DTD/svg11.dtd">
<svg version="1.1" id="Layer_1" xmlns="http://www.w3.org/2000/svg" xmlns:xlink="http://www.w3.org/1999/xlink" x="0px" y="0px"
	 viewBox="0 0 40 93.6" enable-background="new 0 0 40 93.6" xml:space="preserve">
<g>
	<g>
		<g>
			<path fill="#FFFFFF" d="M34.1,60.5H22.5c0.2-0.7,0.3-1.4,0.3-2.3c0-3.8-2-5.6-5.9-5.6h-11C2,52.6,0,54.4,0,58.2
				c0,3.7,2,5.5,5.9,5.5h9.4H17h17.2c3.9,0,5.9-1.8,5.9-5.5v-5.6h-3.1v5.6C36.9,59.7,35.9,60.5,34.1,60.5z M5.9,60.5
				c-1.8,0-2.6-0.8-2.6-2.3c0-1.5,0.9-2.3,2.6-2.3h11c1.8,0,2.7,0.8,2.7,2.3c0,1.5-0.9,2.3-2.7,2.3h-1.6H5.9z"/>
			<path fill="#FFFFFF" d="M0,88.1c0,3.7,2,5.5,5.9,5.5H40v-3.3H5.9c-1.8,0-2.7-0.8-2.7-2.3c0-1.5,0.9-2.3,2.7-2.3H40v-3.3H5.9
				C2,82.6,0,84.4,0,88.1z"/>
			<path fill="#FFFFFF" d="M0,43.2c0,3.7,2,5.5,5.9,5.5H40v-3.3H5.9c-1.8,0-2.7-0.8-2.7-2.3c0-1.5,0.9-2.3,2.7-2.3H40v-3.3H5.9
				C2,37.7,0,39.5,0,43.2z"/>
			<path fill="#FFFFFF" d="M0,5.5c0,1.7,0.4,3,1.2,3.9C0.4,10.3,0,11.6,0,13.3c0,3.7,2,5.5,5.9,5.5H40v-3.3H5.9
				c-1.8,0-2.7-0.8-2.7-2.3c0-1.4,0.8-2.2,2.4-2.3c0.1,0,0.2,0,0.3,0h18v0h0V7.8h-18c-0.1,0-0.2,0-0.4,0C4,7.7,3.1,6.9,3.1,5.5
				c0-1.5,0.9-2.3,2.7-2.3H40V0L5.9,0C2,0,0,1.8,0,5.5z"/>
			<path fill="#FFFFFF" d="M0,78.7h3.2h18.2h10.8h1.9c3.9,0,5.9-1.8,5.9-5.5c0-3.8-2-5.6-5.9-5.6H21.4c-3.9,0-5.9,1.8-5.9,5.6
				c0,0.9,0.1,1.6,0.3,2.3H3.2v-7.8H0v7.8V78.7z M18.8,73.2c0-1.5,0.9-2.3,2.6-2.3h12.7c1.8,0,2.7,0.8,2.7,2.3
				c0,1.5-0.9,2.3-2.7,2.3h-1.5H21.4C19.6,75.4,18.8,74.7,18.8,73.2z"/>
			<path fill="#FFFFFF" d="M10.1,25.4c-0.1,0-0.1-0.1-0.2-0.1c-0.9-0.8-2.2-0.8-3.4-0.8H3.8c-2.4,0-3.7,1.8-3.7,4.2
				c0,2.4,1.2,4.1,3.7,4.1h1.4v-3H4.3c-0.9,0-1.1-0.8-1.1-1.1c0-0.4,0.2-1.1,0.9-1.1h3.2c1.5,0,2,1.1,2.3,1.9c0,0,0,0.1,0,0.1
				c0.4,2.8,2.4,4.2,5.8,4.2h18.7c3.9,0,5.9-1.8,5.9-5.5c0-3.8-2-5.6-5.9-5.6H15.4C12.7,22.7,10.9,23.6,10.1,25.4z M34.1,26
				c1.8,0,2.7,0.8,2.7,2.3c0,1.5-0.9,2.3-2.7,2.3H15.4c-1.8,0-2.6-0.8-2.6-2.3c0-1.5,0.9-2.3,2.6-2.3H34.1z"/>
		</g>
	</g>
</g>
</svg>
