<?xml version="1.0" encoding="utf-8"?>
<!-- Generator: Adobe Illustrator 17.1.0, SVG Export Plug-In . SVG Version: 6.00 Build 0)  -->
<!DOCTYPE svg PUBLIC "-//W3C//DTD SVG 1.1//EN" "http://www.w3.org/Graphics/SVG/1.1/DTD/svg11.dtd">
<svg version="1.1" id="Layer_1" xmlns="http://www.w3.org/2000/svg" xmlns:xlink="http://www.w3.org/1999/xlink" x="0px" y="0px"
	 viewBox="0 0 31.1 40" enable-background="new 0 0 31.1 40" xml:space="preserve">
<g>
	<path fill="#FFFFFF" d="M8.9,4.4H4.4V0h4.4V4.4z M4.4,26.7v-4.4v-4.4v-4.4V8.9V4.4H0v4.4v4.4v4.4v4.4v4.4v4.4v4.4h4.4v-4.4V26.7z
		 M8.9,8.9v4.4v4.4v4.4v4.4v4.4v4.4h4.4v-4.4v-4.4v-4.4v-4.4v-4.4V8.9V4.4H8.9V8.9z M4.4,40h4.4v-4.4H4.4V40z M26.7,0h-4.4v4.4h4.4
		V0z M22.2,26.7v-4.4v-4.4v-4.4V8.9V4.4h-4.4v4.4v4.4v4.4v4.4v4.4v4.4v4.4h4.4v-4.4V26.7z M26.7,4.4v4.4v4.4v4.4v4.4v4.4v4.4v4.4
		h4.4v-4.4v-4.4v-4.4v-4.4v-4.4V8.9V4.4H26.7z M22.2,40h4.4v-4.4h-4.4V40z"/>
</g>
</svg>
