<?xml version="1.0" standalone="no"?>
<!DOCTYPE svg PUBLIC "-//W3C//DTD SVG 20010904//EN"
 "http://www.w3.org/TR/2001/REC-SVG-20010904/DTD/svg10.dtd">
<svg version="1.0" xmlns="http://www.w3.org/2000/svg"
 width="512.000000pt" height="512.000000pt" viewBox="0 0 512.000000 512.000000"
 preserveAspectRatio="xMidYMid meet">
<metadata>
Created by potrace 1.11, written by Peter Selinger 2001-2013
</metadata>
<g transform="translate(0.000000,512.000000) scale(0.100000,-0.100000)"
fill="#000000" stroke="none">
<path d="M2016 4538 c4 -13 1 -16 -14 -13 -20 3 -49 -21 -47 -40 0 -5 4 -16 9
-24 7 -11 6 -12 -5 -5 -22 13 -38 13 -33 -1 4 -9 -4 -11 -25 -9 -17 2 -33 -1
-36 -6 -3 -6 2 -7 12 -4 16 5 16 4 -1 -10 -11 -9 -15 -16 -9 -16 6 0 16 7 23
15 9 11 16 12 25 5 6 -5 16 -6 21 -2 5 4 1 -3 -9 -15 -18 -20 -18 -22 0 -32
12 -7 13 -10 4 -11 -11 0 -11 -3 -1 -15 19 -22 8 -25 -12 -3 -10 10 -13 18 -7
18 8 0 8 4 0 14 -8 10 -9 16 -1 21 6 3 7 11 4 17 -10 16 -25 -14 -18 -36 4
-13 3 -16 -6 -11 -8 5 -11 4 -6 -3 3 -5 3 -12 -1 -15 -5 -2 -3 -3 3 -1 17 4
33 -16 27 -32 -4 -10 0 -12 13 -8 15 5 16 4 5 -4 -21 -15 -45 -4 -30 14 8 10
8 14 0 14 -10 0 -15 -14 -12 -34 1 -5 -5 -6 -13 -3 -20 8 -28 -3 -15 -20 17
-20 -6 -16 -27 5 -16 16 -17 16 -11 0 4 -11 0 -19 -12 -23 -11 -3 -21 -15 -24
-25 -4 -14 -11 -18 -24 -14 -13 4 -11 0 7 -15 19 -16 20 -20 6 -14 -13 4 -17
3 -12 -5 3 -6 2 -13 -3 -17 -6 -3 -8 3 -6 15 5 25 -11 35 -21 12 -4 -9 -6 -21
-5 -25 1 -5 -3 -6 -9 -2 -8 5 -8 11 0 20 7 8 9 19 5 25 -9 15 -25 12 -19 -4 3
-8 0 -17 -6 -21 -6 -3 -10 -3 -9 2 4 25 -1 35 -14 24 -10 -8 -17 -7 -25 1 -8
8 -15 8 -24 0 -9 -7 -19 -7 -35 1 -21 11 -23 15 -23 36 0 6 -9 9 -19 8 -15 -1
-18 -8 -16 -33 l2 -32 -32 16 c-18 10 -28 20 -23 23 6 4 -2 7 -16 7 -15 0 -24
-3 -22 -6 3 -3 1 -10 -4 -17 -7 -8 -5 -12 5 -12 8 0 12 4 9 9 -8 13 11 9 32
-7 16 -13 16 -14 1 -9 -9 3 -24 1 -31 -5 -10 -8 -16 -9 -21 -1 -3 6 -11 7 -17
4 -6 -4 -6 1 1 14 14 26 14 32 0 32 -5 0 -7 -5 -3 -12 5 -8 2 -9 -11 -4 -14 5
-16 4 -6 -7 16 -20 -13 -45 -32 -28 -10 8 -14 7 -14 -4 0 -8 4 -12 8 -9 15 9
16 -22 0 -39 -11 -14 -12 -18 -2 -15 7 2 16 -3 19 -11 2 -8 0 -11 -5 -8 -6 4
-17 1 -26 -6 -13 -9 -14 -16 -6 -27 9 -13 10 -13 6 2 -3 9 1 19 9 22 9 3 13
-1 11 -12 -4 -29 -18 -44 -34 -37 -13 4 -14 3 -3 -10 10 -12 10 -15 -3 -15 -9
0 -19 -5 -23 -12 -4 -7 -3 -8 4 -4 6 4 20 2 31 -3 14 -8 22 -7 32 6 12 14 11
15 -9 9 -17 -6 -21 -4 -16 8 3 9 11 13 17 9 5 -3 7 -1 3 5 -3 6 -2 13 4 17 6
4 8 11 5 16 -4 5 -1 9 5 9 6 0 8 5 4 12 -4 6 -3 8 4 4 6 -4 10 1 9 13 0 11 -6
17 -12 15 -5 -3 -2 1 8 9 18 15 24 33 8 22 -5 -3 -13 0 -17 6 -5 8 -3 9 6 4 9
-6 11 -4 5 5 -6 9 -4 11 5 5 9 -6 11 -4 5 4 -6 10 -3 11 14 2 23 -13 29 -23 8
-15 -7 2 -13 -4 -15 -16 -1 -11 -2 -28 -3 -37 -1 -10 -10 -29 -20 -43 -12 -18
-14 -31 -8 -42 7 -12 1 -23 -25 -46 -19 -17 -32 -34 -28 -38 4 -5 0 -3 -9 4
-22 16 -33 2 -11 -15 15 -13 15 -13 -5 -3 -12 5 -25 15 -29 22 -4 6 -3 9 2 6
5 -4 10 6 11 20 1 25 0 25 -10 7 -7 -11 -21 -21 -32 -23 -18 -2 -18 -1 4 16
17 14 19 19 7 19 -14 0 -26 -16 -31 -43 -2 -6 7 -10 19 -9 14 2 28 -5 36 -19
12 -18 11 -19 -2 -9 -8 7 -18 10 -21 6 -4 -3 -7 -1 -7 5 0 7 -4 12 -9 12 -5 0
-7 -10 -4 -22 3 -16 -1 -13 -13 10 -9 17 -23 32 -31 32 -9 0 -11 5 -7 13 6 9
3 8 -8 -1 -13 -10 -22 -11 -40 -2 -19 9 -21 9 -7 -2 15 -12 19 -19 19 -35 0
-5 7 1 15 11 8 11 15 14 15 7 0 -7 5 -9 13 -5 8 6 8 3 -1 -9 -8 -9 -17 -16
-20 -15 -33 4 -45 -17 -14 -25 9 -2 7 -3 -6 -2 -12 1 -25 -2 -28 -7 -3 -5 -11
-5 -18 1 -9 8 -13 6 -13 -7 0 -22 17 -43 29 -36 5 3 -2 -12 -16 -35 -31 -48
-34 -62 -6 -30 l20 24 -15 -37 c-18 -46 -19 -54 -2 -39 11 8 13 7 12 -7 0 -9
-6 -26 -12 -37 -10 -17 -8 -22 10 -32 12 -7 16 -12 10 -13 -7 0 -13 -5 -13
-11 0 -5 6 -7 13 -3 6 4 4 -2 -5 -13 -23 -25 -23 -34 0 -27 9 3 2 -3 -17 -14
-21 -12 -30 -22 -22 -26 6 -4 11 -12 11 -17 0 -6 -5 -7 -12 -3 -7 4 -8 3 -4
-5 4 -6 12 -9 17 -6 5 4 9 1 9 -4 0 -6 -8 -11 -17 -11 -15 0 -16 -2 -3 -10 23
-15 26 -12 26 20 0 17 -3 30 -8 30 -4 0 -8 4 -8 9 0 14 26 20 41 9 11 -8 10
-9 -3 -4 -20 6 -25 -10 -5 -17 8 -4 7 -6 -3 -7 -10 0 -6 -6 10 -16 14 -8 17
-13 8 -10 -10 3 -20 1 -23 -4 -4 -6 -2 -10 3 -10 6 0 13 -7 16 -16 5 -14 4
-15 -8 -5 -12 10 -17 8 -27 -11 -7 -13 -12 -28 -11 -35 1 -6 -2 -14 -8 -18
-12 -7 -9 23 4 44 7 10 6 12 -4 6 -10 -6 -12 -4 -7 9 4 11 3 15 -4 11 -6 -4
-8 -13 -6 -19 3 -7 1 -19 -3 -26 -5 -8 -4 -22 1 -31 5 -10 5 -20 1 -23 -5 -3
-9 1 -10 9 -1 8 -3 22 -4 30 -1 13 -5 12 -22 -4 -13 -12 -31 -17 -48 -14 -17
2 -28 -1 -28 -8 0 -7 -2 -10 -5 -7 -3 3 -3 12 0 20 6 15 31 18 52 5 6 -4 14 0
17 9 9 23 7 31 -3 15 -5 -7 -14 -10 -20 -7 -6 4 -9 12 -6 17 3 5 -2 6 -11 2
-13 -5 -15 -3 -9 8 5 8 5 11 -1 6 -5 -5 -9 -13 -9 -19 0 -6 -8 -12 -17 -14
-10 -1 -18 1 -18 6 0 4 -7 11 -16 14 -8 3 -12 2 -9 -4 3 -5 -4 -14 -16 -20
-21 -12 -19 -22 6 -26 7 -1 12 3 9 10 -3 7 5 12 20 12 14 0 22 -4 20 -8 -3 -5
-9 -6 -14 -3 -4 3 -11 -2 -14 -11 -3 -8 -10 -12 -16 -9 -5 3 -10 1 -10 -6 0
-8 -5 -7 -17 2 -15 13 -15 12 -4 -9 6 -12 9 -27 6 -32 -3 -5 3 -14 12 -20 15
-10 15 -11 1 -6 -14 4 -27 -10 -32 -34 -1 -3 -5 -11 -10 -19 -6 -10 -5 -12 2
-7 19 11 14 -5 -5 -20 -17 -13 -17 -14 2 -7 16 5 18 4 9 -8 -9 -12 -11 -33 -4
-41 8 -10 5 -54 -4 -60 -8 -5 -7 -8 2 -8 7 0 10 -5 7 -10 -4 -6 -12 -7 -18 -3
-8 5 -8 2 0 -9 7 -8 9 -19 5 -23 -4 -5 -1 -5 6 -1 6 4 12 3 12 -3 0 -5 -6 -12
-12 -14 -10 -4 -10 -6 0 -6 6 -1 12 -6 12 -12 0 -5 -4 -8 -9 -5 -10 7 -8 -9 4
-38 5 -12 3 -21 -6 -27 -11 -7 -11 -9 -1 -9 7 0 10 -5 7 -10 -4 -6 -12 -7 -18
-3 -8 5 -8 2 0 -9 7 -8 9 -19 5 -23 -4 -5 -1 -5 6 -1 6 4 12 3 12 -3 0 -5 -6
-12 -12 -14 -10 -4 -10 -6 0 -6 6 -1 12 -5 12 -11 0 -5 -8 -7 -17 -4 -17 5
-17 5 0 -6 9 -6 17 -18 17 -27 0 -13 -3 -13 -15 -3 -9 7 -15 8 -15 2 0 -5 6
-12 14 -15 22 -9 39 -44 24 -53 -6 -4 -8 -3 -5 3 4 6 -1 17 -11 24 -15 12 -16
12 -5 -2 10 -12 10 -18 0 -29 -9 -10 -9 -11 1 -6 7 4 12 2 12 -5 0 -7 9 -5 23
7 l22 19 -18 -22 c-12 -14 -15 -23 -8 -28 6 -3 11 -12 11 -18 0 -8 -2 -9 -8
-1 -14 21 -50 35 -58 22 -4 -6 -3 -8 2 -5 14 8 26 -2 53 -43 l23 -35 -30 33
c-18 20 -29 27 -29 17 0 -8 4 -15 9 -15 4 0 8 -5 8 -11 0 -5 -5 -7 -11 -3 -8
5 -8 1 0 -14 15 -29 14 -65 -1 -56 -10 6 -10 5 -1 -7 10 -12 10 -18 0 -29 -9
-10 -9 -11 1 -6 7 4 12 2 12 -5 0 -10 3 -10 12 -1 7 7 17 12 23 12 5 0 2 -5
-8 -11 -9 -6 -15 -14 -12 -20 9 -13 -9 -11 -25 4 -12 10 -12 9 0 -6 11 -15 11
-20 1 -26 -10 -6 -9 -10 3 -14 9 -4 15 -1 13 5 -1 6 5 13 13 15 12 4 12 3 1
-5 -9 -6 -10 -12 -3 -16 6 -4 8 -14 5 -22 -5 -15 -7 -15 -15 0 -12 21 -28 20
-28 -1 0 -15 2 -15 9 -4 6 10 9 2 9 -23 0 -33 -2 -35 -17 -24 -14 12 -15 11
-2 -4 11 -15 11 -18 0 -18 -10 -1 -8 -4 4 -11 9 -5 17 -17 17 -26 0 -13 -3
-13 -15 -3 -9 7 -15 8 -15 2 0 -5 6 -12 14 -15 22 -9 39 -44 24 -53 -6 -4 -8
-3 -5 3 4 6 -1 17 -11 24 -15 12 -16 12 -5 -2 10 -12 10 -18 0 -29 -9 -10 -9
-11 1 -6 7 4 12 2 12 -5 0 -7 9 -5 23 7 22 19 22 19 5 -2 -14 -16 -15 -23 -5
-33 9 -9 9 -14 -1 -20 -8 -5 -13 -11 -12 -15 1 -4 -1 -12 -4 -19 -2 -6 -4 -3
-3 8 2 11 6 25 9 31 4 6 -3 16 -17 22 -16 7 -26 8 -30 1 -4 -5 -3 -9 2 -8 19
3 33 -2 33 -12 0 -5 -5 -7 -12 -3 -7 5 -8 3 -3 -7 13 -21 14 -53 1 -61 -8 -5
-7 -8 2 -8 7 0 10 -5 7 -10 -4 -6 -12 -7 -18 -3 -8 5 -8 2 0 -9 7 -8 9 -19 5
-23 -4 -5 -1 -5 5 -1 7 4 13 3 13 -3 0 -5 -6 -12 -12 -14 -10 -4 -10 -6 0 -6
6 -1 12 -6 12 -12 0 -5 -4 -8 -9 -5 -10 7 -8 -9 4 -38 5 -12 3 -21 -6 -27 -11
-7 -11 -9 -1 -9 7 0 10 -5 7 -10 -4 -6 -12 -7 -18 -3 -8 5 -8 2 0 -9 7 -8 9
-19 5 -23 -4 -5 -1 -5 6 -1 6 4 12 3 12 -3 0 -5 -6 -12 -12 -14 -10 -4 -10 -6
0 -6 6 -1 12 -6 12 -12 0 -5 -4 -8 -8 -5 -5 3 -9 -1 -9 -9 0 -8 4 -15 9 -15 4
0 8 -5 8 -11 0 -5 -5 -7 -11 -3 -8 5 -8 1 0 -14 15 -29 14 -65 -1 -56 -10 6
-10 5 -1 -7 10 -12 10 -18 0 -29 -9 -10 -9 -11 1 -6 7 4 12 2 12 -5 0 -10 3
-10 12 -1 7 7 17 12 23 12 5 0 2 -5 -8 -11 -9 -6 -15 -14 -12 -20 9 -13 -9
-11 -25 4 -12 10 -12 9 0 -6 11 -15 11 -20 1 -26 -10 -6 -9 -10 3 -14 9 -4 15
-1 13 5 -1 6 5 13 13 15 12 4 12 3 1 -5 -9 -6 -10 -12 -3 -16 6 -4 8 -14 5
-22 -5 -15 -7 -15 -15 0 -12 21 -28 20 -28 -1 0 -15 2 -16 10 -3 6 10 9 7 9
-15 0 -42 4 -58 25 -91 l17 -29 -26 28 c-14 16 -23 32 -20 37 3 4 -3 14 -13
21 -15 12 -16 12 -6 -1 6 -8 10 -23 9 -32 -2 -10 1 -18 6 -18 5 0 9 -5 9 -11
0 -5 -5 -7 -12 -3 -7 4 -8 3 -4 -4 12 -20 15 -51 5 -57 -12 -8 -12 -35 1 -35
5 0 7 6 4 14 -3 8 -1 17 5 20 5 4 8 18 5 32 -3 17 -1 23 6 19 6 -4 9 -13 6
-21 -3 -7 -1 -16 5 -19 5 -4 7 -11 3 -16 -3 -5 -10 -7 -15 -4 -5 4 -9 1 -9 -4
0 -6 6 -11 13 -11 8 0 7 -4 -3 -10 -12 -8 -12 -10 -1 -10 8 0 11 -3 8 -7 -4
-3 0 -15 10 -25 9 -11 11 -18 5 -18 -7 0 -12 5 -12 11 0 5 -5 7 -10 4 -6 -4
-10 -3 -9 2 5 29 -17 40 -38 19 -4 -4 -3 -7 2 -6 25 5 33 -2 31 -30 -2 -23 1
-27 11 -18 9 7 13 7 13 -1 0 -7 5 -9 13 -5 7 4 9 3 4 -2 -5 -5 -13 -9 -18 -9
-5 0 -9 -3 -9 -7 0 -5 0 -11 0 -14 0 -4 12 2 28 11 15 10 21 12 14 4 -13 -14
-16 -51 -5 -62 7 -8 33 11 33 24 0 5 -5 9 -11 9 -5 0 -8 -4 -4 -9 3 -5 1 -12
-5 -16 -12 -7 -13 15 -1 33 6 10 10 10 20 -2 6 -8 20 -13 29 -11 9 1 23 -2 30
-8 7 -5 15 -7 18 -4 9 9 -6 28 -17 22 -5 -4 -9 -2 -9 2 0 5 10 14 23 22 20 13
21 13 9 -2 -8 -9 -9 -18 -3 -21 5 -3 11 -1 13 6 3 7 9 8 19 3 8 -5 23 -9 34
-7 l20 2 -20 -9 c-11 -5 -28 -7 -38 -5 -9 1 -17 -2 -17 -8 0 -5 6 -8 14 -5 17
7 40 -18 31 -33 -3 -5 -2 -10 3 -10 6 0 13 7 16 16 8 22 8 26 -3 19 -5 -3 -12
-1 -15 4 -4 5 1 8 10 7 8 -1 19 -8 24 -15 5 -10 9 -10 13 -2 3 7 4 7 3 -1 -2
-7 -9 -12 -15 -11 -20 5 -12 -14 12 -26 21 -11 21 -11 -5 -6 -15 3 -30 1 -33
-5 -4 -6 1 -7 11 -3 13 5 15 3 9 -7 -6 -10 -4 -12 8 -7 12 4 14 2 10 -10 -4
-11 -2 -14 5 -9 11 7 9 -24 -3 -43 -3 -5 -1 -12 4 -15 5 -3 8 -20 7 -38 -2
-24 -6 -32 -18 -30 -9 1 -20 -3 -24 -9 -4 -7 -3 -9 3 -6 6 4 19 -3 29 -15 11
-12 13 -18 7 -14 -7 4 -13 3 -13 -3 0 -5 3 -11 8 -14 4 -2 1 -2 -6 -1 -11 3
-16 -9 -13 -28 2 -12 -13 -9 -29 5 -8 6 -6 2 5 -11 19 -24 20 -24 29 -3 10 23
21 27 31 11 4 -6 1 -9 -7 -8 -8 2 -13 -7 -12 -24 1 -15 -3 -25 -8 -22 -4 3 -5
11 -1 17 4 7 -2 5 -13 -3 -29 -22 -30 -24 -12 -17 13 5 19 0 24 -19 5 -19 12
-24 25 -21 27 7 23 -2 -6 -13 -18 -7 -23 -14 -18 -26 4 -10 2 -15 -4 -11 -5 3
-10 0 -10 -8 0 -8 4 -12 9 -9 4 3 8 0 8 -6 0 -6 5 -8 11 -4 8 4 7 9 -2 15 -12
7 -12 9 0 9 11 0 11 3 1 15 -16 20 -6 19 14 -1 14 -13 14 -18 1 -38 -13 -20
-13 -23 0 -23 8 0 13 3 10 5 -7 7 26 42 39 42 6 0 0 -7 -12 -16 -12 -8 -20
-19 -17 -24 7 -11 -32 -33 -45 -25 -5 3 -11 1 -14 -4 -7 -11 35 -8 53 3 7 5
20 1 30 -8 15 -14 20 -14 37 -2 12 10 23 11 31 5 7 -7 13 -6 18 1 3 5 11 10
17 10 6 0 3 -9 -6 -19 -17 -19 -17 -19 1 -17 22 3 25 41 3 41 -8 0 -21 4 -29
9 -10 7 -12 5 -6 -5 5 -8 5 -11 0 -7 -4 4 -16 3 -26 -2 -23 -13 -34 4 -13 21
22 18 42 20 48 3 3 -7 12 -11 20 -8 9 3 20 -3 28 -15 17 -28 30 -27 22 3 -6
26 10 44 22 25 4 -8 3 -9 -4 -5 -15 9 -15 -9 -2 -35 9 -15 15 -17 30 -9 16 9
18 7 15 -11 -5 -26 -4 -25 -35 -33 -16 -5 -20 -4 -12 2 10 7 10 11 -3 22 -13
11 -19 11 -33 -3 -10 -11 -12 -17 -4 -17 7 0 12 5 12 10 0 6 5 10 11 10 6 0 9
-7 5 -15 -3 -9 3 -19 16 -26 16 -9 19 -8 13 2 -5 8 -4 10 4 5 6 -4 20 -2 29 5
15 12 15 12 0 -7 -20 -23 -23 -44 -8 -44 6 0 10 6 10 14 0 17 27 29 35 15 4
-5 2 -8 -4 -7 -5 2 -16 -5 -23 -15 -14 -19 -53 -14 -41 6 4 6 1 7 -7 2 -11 -7
-9 -12 8 -23 12 -8 22 -19 22 -24 0 -6 -8 -4 -17 3 -16 12 -17 12 -6 -2 10
-12 10 -18 0 -29 -10 -10 -9 -11 2 -5 9 5 12 3 9 -6 -3 -8 -10 -14 -16 -14 -5
0 -14 -4 -19 -9 -5 -5 -3 -6 5 -2 7 4 12 2 12 -5 0 -7 6 -4 14 7 8 10 18 15
22 11 4 -4 14 3 22 15 11 19 12 19 7 3 -11 -35 -10 -38 13 -50 20 -11 21 -13
7 -19 -23 -9 -27 -8 -19 6 5 7 3 8 -6 3 -9 -6 -11 -4 -5 5 5 9 4 11 -4 6 -6
-4 -10 -4 -9 1 2 4 -1 8 -7 8 -5 0 -9 -3 -8 -8 3 -6 -21 -11 -40 -8 -5 1 -6
-3 -2 -8 3 -6 15 -7 29 -1 25 9 46 -3 46 -27 0 -7 3 -13 8 -14 4 0 15 -2 25
-4 9 -2 15 1 11 6 -3 5 3 7 13 6 36 -7 54 -20 49 -33 -10 -26 3 -14 21 19 9
17 16 38 15 44 -2 7 2 13 8 13 5 0 9 -5 7 -11 -1 -6 6 -13 16 -14 12 -2 17 1
14 9 -3 7 1 13 9 13 7 0 11 -4 8 -8 -3 -5 2 -19 11 -32 8 -13 13 -26 10 -29
-3 -2 1 -5 9 -5 10 0 10 6 -3 28 -12 22 -13 31 -4 40 9 9 11 7 7 -7 -3 -13 3
-27 18 -39 13 -11 20 -16 16 -11 -4 5 -3 15 3 23 8 8 8 13 1 13 -6 0 -12 -5
-14 -12 -3 -7 -7 -5 -11 6 -5 11 -3 15 5 10 8 -5 9 -1 4 11 -7 18 -6 18 13 1
11 -10 17 -24 14 -32 -6 -17 9 -18 25 -2 8 8 15 8 25 0 8 -7 16 -9 19 -6 3 3
9 -7 12 -22 4 -14 9 -24 12 -22 9 9 -16 59 -26 53 -5 -3 -10 -2 -10 3 0 9 77
8 86 -1 10 -10 34 5 27 17 -4 6 1 5 10 -3 11 -9 15 -21 11 -33 -5 -17 -4 -18
15 -6 16 9 23 10 32 1 9 -9 6 -10 -12 -6 -13 3 -21 2 -17 -2 4 -5 3 -14 -3
-22 -9 -10 -8 -17 2 -30 12 -15 12 -16 -5 -9 -19 6 -19 6 -3 -12 9 -10 17 -24
17 -30 0 -7 8 -12 18 -13 15 0 15 -1 -2 -8 -14 -5 -16 -10 -8 -15 7 -4 16 -5
20 -2 5 3 9 -1 9 -9 0 -18 -9 -19 -25 -3 -9 9 -12 9 -12 -1 0 -7 -5 -9 -12 -5
-10 5 -10 4 -1 -6 8 -9 9 -19 3 -30 -8 -15 -5 -17 22 -14 26 3 29 2 18 -11 -9
-11 -10 -19 -3 -26 8 -8 11 -6 10 6 -1 10 4 20 11 22 8 3 10 -2 6 -14 -4 -13
-3 -14 3 -5 5 7 17 10 25 7 9 -4 19 -1 24 6 4 8 3 10 -4 5 -6 -4 -24 0 -39 9
-16 9 -20 14 -11 11 10 -3 20 -1 23 4 4 6 12 10 18 10 7 0 6 -4 -3 -10 -8 -5
-11 -12 -7 -16 3 -4 13 -1 22 6 9 7 18 10 22 6 3 -3 1 -6 -6 -6 -7 0 -9 -5 -6
-10 5 -8 11 -8 20 0 9 8 15 8 20 0 3 -5 11 -10 17 -10 6 0 3 9 -7 20 -16 17
-16 20 -3 15 9 -4 19 -13 22 -21 3 -9 11 -12 18 -8 7 4 26 9 43 10 16 1 34 3
38 3 5 1 5 7 1 14 -4 6 2 4 13 -6 11 -9 23 -14 28 -10 4 5 5 3 2 -3 -3 -6 -29
-10 -56 -9 -28 1 -48 -1 -46 -5 2 -4 -7 -6 -20 -4 -14 1 -25 -1 -25 -6 0 -11
53 -7 63 5 4 6 11 5 17 -5 5 -8 10 -10 10 -5 0 6 4 4 9 -4 10 -15 41 -25 40
-13 -3 21 3 32 16 32 8 0 12 -6 9 -14 -7 -18 12 -30 22 -15 4 8 3 9 -4 5 -7
-4 -12 -3 -12 3 0 14 16 22 24 13 11 -10 60 -10 67 0 3 5 22 9 43 10 20 1 39
5 42 10 3 4 10 5 16 2 8 -5 9 -1 5 12 -7 18 -6 18 6 2 8 -10 17 -15 20 -11 4
3 7 1 7 -5 0 -6 -12 -10 -26 -9 -19 1 -28 -3 -30 -16 -2 -18 -1 -18 16 -2 12
11 20 13 25 6 3 -6 11 -11 16 -11 6 0 7 5 4 10 -3 6 1 10 10 10 11 0 15 -5 11
-16 -3 -9 -2 -12 5 -8 6 3 8 15 6 26 -3 11 -3 18 0 15 3 -3 16 -2 30 4 16 6
22 6 18 -1 -3 -6 -12 -10 -19 -10 -7 0 -13 -7 -13 -15 0 -11 4 -12 11 -5 14
14 29 13 20 -2 -4 -6 -3 -8 4 -4 5 3 12 1 14 -6 2 -6 12 -12 22 -14 10 -1 15
0 12 3 -3 3 -1 14 5 24 7 14 7 19 -2 17 -6 -2 -14 4 -16 12 -3 9 -1 11 4 5 4
-6 15 -10 23 -10 8 1 21 -3 28 -8 8 -6 17 -5 27 3 8 7 15 9 15 5 0 -4 8 -1 17
6 16 13 17 12 4 -3 -9 -13 -10 -18 -2 -18 7 0 9 -5 5 -12 -4 -6 -3 -8 4 -4 5
3 12 1 14 -6 2 -6 12 -12 22 -14 10 -1 15 0 12 3 -3 3 -1 14 5 24 7 14 7 19
-2 17 -6 -2 -14 4 -16 12 -3 9 -1 11 4 5 4 -6 15 -10 23 -10 8 1 21 -3 28 -8
7 -6 17 -5 25 2 8 6 17 8 20 4 4 -3 15 0 24 8 16 12 17 12 6 -2 -7 -9 -10 -19
-6 -23 4 -4 -5 -5 -20 -2 -15 2 -27 1 -27 -4 0 -14 48 -6 62 10 7 8 12 13 11
11 -4 -6 49 -32 54 -27 7 7 -7 27 -16 22 -4 -3 -13 5 -21 17 -12 20 -12 21 4
8 19 -16 64 -21 86 -10 10 4 21 -2 35 -20 15 -20 15 -23 2 -12 -9 7 -17 9 -17
3 0 -18 28 -21 42 -4 11 13 11 14 -1 7 -10 -5 -12 -4 -7 3 4 7 3 12 -2 12 -5
0 -9 6 -9 13 0 8 6 14 13 14 7 0 11 -4 8 -9 -10 -16 18 -39 39 -32 15 5 18 3
12 -7 -5 -8 -4 -11 1 -6 5 5 9 14 9 19 0 6 6 13 14 16 9 3 11 0 6 -7 -5 -9 -1
-9 14 1 12 7 21 16 21 19 0 4 10 5 23 3 21 -4 21 -4 -2 6 l-24 10 23 25 c20
22 21 25 6 31 -13 5 -14 9 -5 21 11 12 9 12 -14 2 -14 -6 -28 -19 -30 -28 -4
-14 -5 -14 -6 0 0 8 6 24 15 35 8 10 12 12 8 4 -5 -10 -1 -9 14 4 12 10 19 23
16 27 -3 5 0 9 6 9 6 0 10 7 8 16 -2 10 3 19 11 22 10 3 11 0 5 -9 -7 -12 -5
-12 9 -1 9 8 21 11 28 7 8 -6 8 -2 0 14 -7 11 -14 21 -17 21 -3 0 -3 -4 0 -8
3 -5 -1 -9 -9 -10 -8 -1 -22 -3 -30 -4 -8 -1 -12 -5 -9 -9 2 -4 0 -10 -6 -14
-6 -4 -8 -10 -5 -15 3 -5 1 -11 -5 -15 -6 -4 -7 -11 -4 -17 4 -7 2 -8 -5 -4
-6 4 -19 2 -28 -6 -15 -12 -15 -11 -3 9 8 12 18 19 23 16 6 -3 8 5 5 20 -4 19
-1 24 10 20 12 -5 12 -2 2 16 -11 21 -10 22 8 12 16 -8 25 -7 44 9 12 11 18
19 11 20 -6 0 -15 -5 -18 -10 -3 -6 -14 -10 -23 -9 -14 0 -14 2 -2 6 8 3 23
12 33 21 17 15 23 8 18 -20 -3 -19 21 -5 29 17 12 31 20 33 13 3 -4 -21 -3
-21 9 -6 13 15 15 15 25 0 6 -9 14 -13 19 -9 5 4 2 13 -6 18 -13 9 -13 10 0 6
18 -4 21 -36 6 -56 -9 -12 -8 -12 11 0 16 10 21 20 17 36 -4 13 -2 23 5 23 6
0 8 -6 6 -12 -3 -8 4 -14 20 -14 14 -1 25 2 25 7 0 5 -5 9 -12 9 -6 0 -9 3 -6
6 4 3 17 0 30 -7 35 -19 60 -19 53 0 -4 11 0 10 13 -4 15 -15 17 -24 9 -35 -7
-10 -4 -9 8 2 16 15 17 19 4 35 -13 17 -13 17 5 3 18 -14 19 -13 13 4 -6 16
-5 17 8 6 10 -8 15 -9 15 -1 0 6 6 11 13 11 6 -1 2 -9 -10 -19 -13 -11 -23
-21 -23 -24 0 -3 10 -3 23 0 18 4 19 3 7 -6 -8 -6 -10 -11 -4 -11 5 0 16 6 23
13 11 10 12 7 7 -13 l-7 -25 15 25 c9 14 15 20 16 13 0 -12 40 -14 40 -1 0 13
-20 19 -20 6 -1 -8 -6 -6 -15 6 -8 11 -15 15 -15 10 0 -6 -7 -11 -15 -11 -21
0 -19 17 3 18 9 1 21 1 26 0 5 -1 6 6 2 16 -5 16 -4 15 9 -1 14 -18 20 -15 15
9 -1 5 2 7 6 3 4 -5 13 1 21 12 8 11 20 17 28 14 8 -4 15 -1 15 6 0 6 -5 8
-10 5 -5 -3 -10 -1 -10 6 0 7 -12 2 -27 -12 -20 -17 -23 -18 -11 -3 14 16 15
23 5 34 -10 10 -9 11 3 4 23 -13 63 -13 50 0 -12 12 -14 29 -2 22 4 -2 8 3 8
12 1 9 4 26 8 37 7 17 6 17 -4 5 -9 -12 -10 -9 -5 14 5 26 4 28 -9 17 -12 -10
-13 -18 -5 -33 8 -15 8 -22 -1 -28 -6 -4 -11 -10 -11 -14 3 -19 0 -26 -10 -26
-8 0 -7 6 2 17 12 15 12 16 -6 10 -17 -6 -18 -5 -4 5 9 7 15 24 14 38 -1 14 5
31 14 38 14 12 14 13 -5 9 -12 -3 -21 1 -21 8 0 10 7 11 25 4 20 -8 23 -7 18
7 -4 11 0 18 14 21 11 3 18 9 15 13 -3 5 -1 11 5 15 6 4 7 11 4 17 -4 7 -2 8
5 4 9 -6 9 -11 1 -21 -8 -9 -8 -15 0 -20 5 -3 10 -1 10 5 0 7 12 9 30 6 17 -2
30 -1 30 4 0 4 7 11 16 14 13 5 14 4 6 -7 -7 -8 -8 -18 -4 -22 4 -5 1 -5 -5
-1 -9 5 -13 1 -13 -11 1 -14 6 -12 25 12 13 16 27 26 31 22 4 -4 2 -7 -4 -7
-7 0 -12 -5 -12 -11 0 -5 5 -7 12 -3 7 4 8 3 4 -5 -4 -6 -12 -8 -18 -5 -6 4
-8 2 -4 -4 3 -5 1 -12 -6 -14 -9 -3 -9 -6 0 -12 7 -4 12 -3 12 3 0 6 6 9 13 7
6 -1 9 -1 4 1 -4 3 -4 9 -1 14 4 6 11 6 19 -1 9 -8 15 -8 20 0 3 6 11 7 17 4
7 -5 8 -2 2 7 -5 8 -14 30 -21 49 -10 29 -10 32 1 18 7 -10 16 -14 21 -10 4 4
5 -2 1 -14 -4 -14 -1 -26 11 -35 16 -13 17 -12 5 3 -10 12 -11 22 -3 36 6 11
7 22 4 26 -3 3 -2 6 4 6 6 0 14 7 17 16 3 8 2 13 -3 10 -5 -3 -12 1 -15 10 -8
22 -8 26 3 19 5 -3 13 0 17 6 4 7 3 9 -3 6 -18 -11 -23 21 -7 38 9 8 11 15 6
15 -5 0 -12 -3 -16 -7 -10 -11 -37 -12 -30 -2 3 5 10 6 16 3 8 -5 9 -1 5 10
-5 13 -3 17 7 13 10 -4 13 -1 9 9 -3 8 1 14 8 14 10 0 10 3 1 12 -16 16 -15
31 1 22 7 -5 7 -1 -2 10 -13 15 -13 19 0 27 8 5 9 9 3 9 -5 0 -16 -6 -23 -13
-11 -10 -13 -9 -8 5 7 19 -8 35 -16 18 -3 -6 -4 -5 -3 1 1 7 10 13 19 15 9 1
15 -2 12 -7 -4 -5 1 -6 10 -2 10 3 13 8 6 12 -13 8 -10 51 3 51 6 0 5 5 -2 12
-14 14 -16 78 -2 78 6 0 10 9 10 19 0 14 5 18 19 14 11 -3 21 2 25 13 5 14 4
15 -9 4 -8 -7 -15 -8 -15 -2 0 5 7 13 16 16 8 3 12 11 8 17 -4 8 -3 9 5 5 6
-4 8 -12 5 -18 -5 -7 -1 -9 9 -5 22 8 22 -2 1 -18 -15 -10 -14 -12 7 -10 17 1
24 8 24 22 0 12 4 25 8 29 4 5 5 1 2 -8 -5 -13 -2 -16 14 -13 12 2 19 0 16 -6
-4 -5 7 -9 24 -9 21 0 29 4 25 13 -2 7 4 22 14 33 11 11 18 32 17 50 -1 17 4
31 10 31 6 0 11 -11 11 -24 0 -12 -3 -23 -6 -23 -4 0 -7 -7 -7 -15 0 -8 4 -15
9 -15 4 0 8 6 8 14 0 8 6 17 13 19 9 4 9 6 -1 6 -7 1 -10 6 -7 11 5 8 12 7 23
-1 10 -6 3 2 -14 18 -16 16 -29 36 -26 44 2 8 -3 6 -12 -5 -9 -11 -16 -15 -16
-9 0 7 5 15 11 18 7 5 5 15 -5 31 -20 30 -21 44 -1 18 14 -19 15 -19 21 3 3
13 10 21 14 18 5 -3 12 0 16 6 4 8 3 9 -4 5 -16 -9 -15 7 0 22 7 7 9 12 5 12
-4 0 -17 -15 -28 -32 -17 -28 -19 -29 -14 -8 4 14 11 29 16 34 18 20 8 29 -11
11 -24 -22 -27 -13 -4 10 13 12 19 13 30 4 12 -10 13 -9 8 5 -5 13 -14 16 -33
11 -17 -4 -21 -3 -12 3 11 8 11 10 0 14 -9 3 -8 6 5 11 9 4 15 3 12 -1 -3 -5
2 -9 10 -9 9 0 11 4 5 10 -5 5 -7 17 -4 26 5 13 2 13 -15 -3 -25 -22 -30 -15
-6 9 13 12 19 13 30 4 12 -10 13 -9 8 5 -5 12 -14 16 -29 14 -13 -3 -22 0 -22
9 0 8 9 11 23 9 16 -3 21 0 19 12 -1 10 -8 16 -14 15 -6 -2 -11 2 -11 7 0 6 4
10 9 10 13 0 10 49 -5 85 -8 19 -9 37 -4 45 11 17 -7 43 -23 33 -6 -3 -7 -1
-3 6 6 9 11 9 22 0 9 -8 14 -8 14 -1 0 6 -7 15 -16 20 -15 8 -15 10 0 15 9 4
16 11 16 17 0 6 -4 9 -8 6 -5 -3 -9 0 -10 7 0 7 -3 24 -6 39 -8 34 19 65 40
47 12 -10 13 -9 8 5 -5 13 -14 16 -33 11 -17 -4 -21 -3 -12 3 11 8 11 10 0 14
-9 3 -8 6 5 11 9 4 15 3 12 -1 -3 -5 2 -9 10 -9 9 0 11 4 5 10 -5 5 -7 17 -4
26 5 13 2 13 -15 -3 -25 -22 -30 -15 -6 9 13 12 19 13 30 4 12 -10 13 -9 8 5
-5 12 -14 16 -30 13 -23 -4 -28 11 -9 26 6 4 4 11 -5 18 -13 9 -13 10 0 6 8
-2 14 -11 14 -19 -1 -8 4 -15 11 -15 9 0 7 12 -6 41 -11 26 -15 46 -9 56 11
21 -6 40 -29 33 -13 -4 -14 -3 -1 5 10 8 18 8 27 0 9 -7 13 -7 13 0 0 6 -8 16
-17 21 -10 6 -13 11 -6 11 11 0 11 38 0 57 -3 5 0 10 8 10 8 0 12 -4 9 -9 -3
-5 0 -15 6 -23 10 -12 10 -15 -1 -15 -11 0 -11 -2 1 -10 12 -8 12 -10 1 -10
-11 0 -11 -3 -1 -15 6 -8 9 -18 6 -23 -3 -5 1 -9 9 -9 8 0 11 5 8 10 -11 19
-11 57 0 57 7 0 4 5 -5 11 -10 5 -18 15 -18 21 0 7 5 7 14 -1 11 -9 16 -9 22
1 14 22 13 37 -3 31 -11 -4 -11 -8 -3 -13 8 -5 8 -10 2 -14 -5 -3 -15 1 -21 8
-10 11 -8 17 6 26 16 10 16 11 1 6 -57 -19 -54 -18 -35 -6 14 9 15 15 7 25 -6
8 -19 11 -28 8 -14 -4 -15 -3 -2 5 10 8 18 8 27 0 9 -7 13 -7 13 1 0 6 -7 14
-16 18 -13 5 -13 7 -2 14 11 7 10 11 -2 19 -8 5 -10 10 -4 10 6 0 17 -7 24
-15 10 -12 10 -15 0 -15 -10 0 -10 -3 0 -15 6 -8 9 -18 6 -23 -3 -5 1 -9 9 -9
11 0 12 5 3 20 -8 16 -7 23 8 35 17 13 18 14 1 8 -14 -4 -21 2 -32 26 -8 20
-10 39 -5 49 11 20 -6 39 -29 32 -13 -4 -14 -3 -1 5 10 8 18 8 27 0 9 -7 13
-7 13 0 0 6 -8 16 -17 21 -10 6 -13 11 -6 11 11 0 11 38 0 57 -3 5 0 10 8 10
8 0 12 -4 9 -9 -3 -5 0 -15 6 -23 10 -12 10 -15 -1 -15 -11 0 -11 -2 1 -10 12
-8 12 -10 1 -10 -11 0 -11 -3 -1 -15 6 -8 9 -18 6 -23 -3 -5 1 -9 9 -9 8 0 11
5 8 10 -11 19 -11 57 0 57 7 0 4 5 -5 11 -10 5 -18 15 -18 21 0 7 5 7 14 -1
11 -9 16 -9 22 1 14 22 13 37 -3 31 -11 -4 -11 -8 -3 -13 8 -5 8 -10 2 -14 -5
-3 -15 1 -21 8 -10 11 -8 17 6 26 16 10 16 11 1 6 -10 -3 -26 -9 -35 -12 -16
-5 -16 -4 0 6 14 9 15 15 7 25 -6 8 -19 11 -28 8 -14 -4 -15 -3 -2 5 10 8 18
8 27 0 9 -7 13 -7 13 1 0 6 -7 14 -15 18 -13 5 -13 8 5 20 11 8 20 19 20 25 0
6 -9 3 -20 -7 -24 -22 -27 -13 -4 10 13 12 19 13 30 4 12 -10 13 -9 8 5 -5 13
-14 16 -33 11 -17 -4 -21 -3 -12 3 11 8 11 10 0 14 -9 3 -8 6 5 11 9 4 15 3
12 -1 -3 -5 2 -9 10 -9 9 0 11 4 5 10 -5 5 -7 17 -4 26 5 13 2 13 -15 -3 -25
-22 -30 -15 -6 9 13 12 19 13 30 4 12 -10 13 -9 8 5 -5 12 -14 16 -29 14 -13
-3 -22 0 -22 9 0 8 9 11 23 9 16 -3 21 0 19 12 -1 10 -8 16 -14 14 -6 -1 -11
2 -11 8 0 5 5 10 10 10 6 0 10 5 10 11 0 5 -4 8 -9 4 -5 -3 -13 0 -17 6 -4 7
-3 9 4 5 6 -3 14 -1 18 5 4 8 9 7 16 -2 8 -11 9 -10 4 4 -4 11 0 17 12 18 11
0 12 2 4 6 -7 3 -18 0 -25 -6 -15 -12 -58 -11 -51 1 3 5 10 6 15 2 15 -9 39
16 32 33 -4 9 -2 14 3 10 5 -3 10 2 10 12 0 13 -6 17 -20 13 -11 -3 -15 -7 -8
-10 8 -2 9 -9 2 -21 -5 -10 -6 -21 -2 -25 3 -4 -2 -4 -12 0 -12 5 -14 9 -6 14
13 8 10 41 -5 53 -6 5 -4 7 5 6 34 -3 41 1 35 21 -4 13 -2 20 7 20 8 0 6 4 -4
11 -10 5 -18 16 -18 24 0 9 -6 12 -17 9 -15 -5 -15 -4 -3 4 8 7 19 7 25 2 6
-5 17 -5 25 0 11 7 12 10 2 10 -7 0 -10 5 -7 10 3 6 0 10 -7 10 -9 0 -9 3 2
10 11 7 6 8 -19 5 -18 -2 -30 -1 -27 2 3 3 0 13 -7 21 -9 13 -9 14 1 8 7 -4
12 -2 12 4 0 6 5 8 11 4 8 -5 8 -9 -1 -14 -7 -4 -8 -10 -4 -12 5 -3 18 4 28
15 16 17 16 19 3 14 -9 -3 -19 -2 -22 4 -4 5 -10 7 -15 4 -13 -8 -19 22 -7 36
10 11 9 11 -5 0 -10 -7 -15 -17 -12 -22 3 -5 -2 -6 -11 -3 -10 4 -12 10 -6 18
14 17 -47 13 -62 -4 -10 -12 -9 -12 3 -3 13 10 16 8 16 -7 0 -14 -4 -16 -17
-9 -24 12 -29 11 -25 -3 1 -7 1 -10 -1 -5 -3 4 -10 4 -16 0 -7 -3 -2 5 11 19
28 31 29 45 0 18 -26 -24 -29 -24 -54 -4 -18 15 -18 15 2 5 22 -11 34 -6 34
13 0 6 -5 4 -10 -4 -5 -8 -10 -10 -10 -3 0 6 -8 10 -17 8 -10 -1 -17 -9 -17
-18 1 -9 -4 -13 -12 -10 -11 4 -10 9 3 29 8 13 11 24 5 24 -6 0 -13 -6 -15
-12 -4 -9 -6 -8 -6 2 -1 9 5 22 12 29 6 8 8 12 2 9 -5 -3 -19 4 -29 15 -16 17
-17 19 -3 14 16 -6 23 12 18 51 -1 6 3 12 9 12 6 0 8 5 5 11 -5 6 -12 4 -20
-8 -10 -13 -17 -15 -25 -7 -9 9 -9 14 1 19 8 5 10 4 5 -3 -4 -7 -2 -12 3 -12
6 0 11 6 11 14 0 18 -25 38 -35 28 -5 -4 -5 -1 -1 6 6 9 11 10 20 3 7 -6 17
-7 21 -3 5 4 5 2 2 -4 -3 -6 0 -11 7 -11 7 0 13 6 13 13 0 7 -4 11 -9 8 -4 -3
-8 0 -8 5 0 6 5 11 12 11 6 0 8 3 5 6 -4 4 -14 1 -24 -7 -15 -12 -16 -12 -10
5 6 14 4 17 -8 12 -8 -3 -15 -2 -15 3 0 5 9 11 20 14 11 3 18 2 15 -2 -2 -4 2
-8 9 -8 7 0 13 6 13 13 0 7 -4 11 -9 7 -12 -7 -6 40 5 48 5 3 2 9 -6 12 -11 4
-15 0 -12 -13 5 -26 -19 -58 -30 -40 -5 8 -4 11 2 7 6 -4 13 0 17 8 3 8 0 15
-7 15 -9 0 -8 3 1 9 16 9 15 20 -1 41 -8 10 -3 9 18 -4 17 -10 24 -13 18 -5
-7 7 -13 26 -13 42 0 20 4 26 13 21 10 -6 10 -4 0 7 -7 7 -13 17 -13 22 0 4 6
5 13 1 6 -4 9 -4 5 1 -4 4 -3 14 4 22 8 11 7 12 -6 7 -9 -3 -16 -10 -16 -16 0
-5 -4 -7 -8 -4 -4 2 -9 -4 -9 -15 -1 -11 3 -17 9 -13 7 4 7 0 -1 -13 -6 -11
-7 -23 -3 -27 3 -4 -2 -4 -12 0 -14 5 -15 9 -4 15 10 6 9 12 -7 24 -11 9 -15
14 -8 11 6 -4 14 -2 18 4 3 5 0 10 -7 10 -7 0 -2 7 10 16 12 8 22 21 22 27 0
8 -3 8 -8 2 -11 -16 -52 -36 -52 -26 0 5 10 13 21 16 17 6 19 9 8 16 -12 7
-11 9 1 10 8 1 19 1 23 0 5 -1 6 3 2 8 -3 6 -12 8 -19 5 -9 -3 -17 3 -21 15
-4 12 -15 21 -26 21 -11 0 -17 5 -14 10 3 6 1 10 -4 10 -19 0 -12 -22 8 -27
13 -3 18 -11 14 -21 -4 -15 -3 -15 7 -2 10 13 11 12 6 -3 -3 -10 -2 -16 4 -12
6 4 7 -1 3 -11 -5 -15 -7 -15 -15 0 -7 13 -14 14 -31 6 -22 -11 -22 -11 -2 5
17 13 18 17 5 25 -8 5 -18 6 -24 3 -6 -4 -6 1 -2 13 5 15 4 16 -5 7 -6 -6 -18
-9 -25 -6 -8 3 -21 0 -29 -7 -12 -10 -18 -6 -33 19 -10 17 -22 28 -25 24 -4
-3 -7 -2 -7 3 0 6 6 16 13 23 10 10 9 12 -3 9 -8 -2 -14 3 -12 10 1 8 -2 11
-8 7 -5 -3 -10 -1 -10 4 0 6 -5 11 -11 11 -8 0 -8 -5 1 -15 7 -9 8 -15 2 -15
-10 0 -24 25 -26 45 -1 6 -9 10 -18 10 -9 0 -20 4 -25 9 -4 5 -3 7 2 3 18 -10
40 10 29 25 -6 7 -11 24 -12 38 -1 18 1 21 8 11 4 -8 6 -20 3 -28 -3 -7 2 -15
10 -19 9 -3 14 -14 12 -25 -3 -12 0 -17 7 -13 7 4 8 3 4 -4 -4 -7 -2 -12 3
-12 15 0 14 13 -1 29 -11 12 -9 13 7 7 20 -6 20 -6 1 9 -18 14 -15 20 7 16 5
-1 6 3 2 9 -5 8 -11 8 -20 0 -9 -8 -15 -8 -20 0 -3 5 -2 10 2 10 5 0 17 6 27
13 16 12 16 14 2 14 -9 0 -16 -4 -16 -9 0 -4 -5 -8 -12 -8 -6 0 -9 3 -6 6 7 7
-34 49 -57 57 -9 4 -14 11 -10 16 3 5 1 12 -4 15 -10 7 -9 -13 2 -31 4 -6 3
-14 -3 -18 -5 -3 -10 -2 -10 3 0 6 -6 12 -13 15 -8 3 -14 -1 -14 -8 0 -8 3
-14 6 -13 19 2 22 -4 11 -17 -7 -8 -18 -15 -24 -15 -6 0 -4 5 4 10 17 11 18
11 -38 15 -34 3 -45 -1 -57 -18 -8 -12 -15 -16 -15 -10 0 7 5 15 11 19 8 4 7
9 -2 15 -12 8 -12 11 1 18 8 6 11 13 7 17 -10 10 -20 -2 -22 -28 -1 -19 -8
-22 -50 -24 -29 -1 -43 1 -34 6 7 5 17 6 23 3 5 -4 6 -1 1 6 -6 10 -3 11 14 2
11 -7 22 -9 22 -6 1 3 2 8 3 13 1 4 4 12 8 18 11 17 -30 10 -53 -9 -10 -9 -26
-17 -34 -17 -9 0 -12 -6 -9 -17 5 -17 5 -17 -6 0 -6 9 -15 15 -20 12 -19 -12
-47 14 -45 40 2 14 -1 27 -5 30 -5 3 -7 -7 -4 -22 5 -27 5 -27 -15 -9 -22 20
-87 33 -75 15 3 -6 13 -8 21 -5 8 3 12 2 9 -3 -4 -5 4 -7 15 -4 21 6 21 6 3
-23 -25 -40 -27 -42 -20 -17 4 12 2 24 -5 29 -7 4 -9 3 -6 -3 4 -6 0 -19 -9
-29 -15 -18 -15 -18 -6 1 11 23 5 48 -9 39 -5 -3 -8 0 -7 8 2 7 -3 12 -10 10
-8 -1 -11 2 -7 8 3 5 1 10 -6 10 -7 0 -9 3 -6 6 4 4 13 1 22 -6 9 -8 15 -9 15
-2 0 6 -7 15 -16 20 -15 8 -15 10 0 15 11 5 15 3 10 -5 -4 -7 -3 -8 5 -4 7 4
10 2 9 -5 -2 -7 6 -14 17 -16 20 -3 20 -3 0 5 -19 9 -19 9 0 21 16 10 16 11 3
7 -10 -3 -18 -1 -18 5 0 6 -9 8 -20 4 -20 -6 -28 9 -10 20 6 3 10 11 10 17 0
6 -7 5 -17 -3 -16 -12 -17 -12 -6 2 7 9 11 18 8 21 -3 2 2 5 10 5 8 0 12 -3
10 -7 -2 -3 5 -6 15 -7 11 -1 22 3 26 8 3 6 -2 9 -11 7 -10 -2 -20 3 -23 11
-3 10 0 11 9 5 12 -7 12 -5 0 9 -17 21 -4 22 19 2 15 -14 17 -13 15 5 -1 11
-5 23 -10 27 -4 5 -4 2 0 -6 6 -11 4 -13 -9 -8 -10 4 -20 7 -22 7 -3 0 -2 6 2
13 4 6 4 9 -1 5 -4 -4 -14 -1 -21 7 -17 16 -55 6 -63 -16 -3 -10 2 -9 22 3 23
16 26 16 39 1 11 -14 10 -15 -12 -8 -23 7 -24 7 -10 -11 14 -17 14 -18 -1 -6
-9 7 -23 11 -30 10 -8 -2 -14 5 -14 16 0 11 -6 21 -14 24 -9 3 -11 0 -6 -8 6
-9 4 -11 -6 -4 -23 14 -63 11 -71 -6 -6 -11 -7 -10 -5 5 2 16 9 20 39 19 33
-1 35 1 25 18 -7 10 -16 18 -21 18 -4 0 -3 -7 4 -15 12 -15 0 -22 -14 -8 -9
10 -37 13 -31 4 9 -15 -59 -10 -70 5 -9 13 -11 12 -11 -5 0 -11 3 -18 6 -16 3
2 12 0 19 -4 10 -7 9 -9 -2 -14 -15 -5 -34 9 -36 26 -1 4 -4 6 -8 5 -5 -2 -7
-5 -6 -9 1 -3 -7 -11 -18 -17 -19 -12 -19 -11 -9 8 8 16 8 20 -2 18 -7 -2 -12
3 -10 10 1 8 -2 11 -8 7 -8 -5 -8 -11 0 -20 8 -10 8 -15 0 -20 -8 -5 -7 -12 2
-23 12 -15 11 -16 -4 -3 -10 7 -15 17 -13 22 7 10 -16 49 -28 49 -4 0 -6 -4
-2 -9 3 -5 1 -12 -5 -16 -5 -3 -10 0 -10 7 0 9 -3 9 -8 2 -11 -18 -74 -15 -89
4 -12 15 -12 15 -6 -3 6 -17 4 -18 -8 -8 -13 10 -19 10 -34 0 -15 -12 -14 -13
18 -12 41 2 67 -9 43 -18 -8 -3 -18 -2 -22 4 -4 6 -12 5 -22 -3 -12 -10 -14
-10 -8 0 4 6 3 12 -1 12 -5 0 -15 -6 -22 -12 -11 -11 -12 -10 -6 1 6 10 4 13
-7 8 -10 -3 -20 3 -28 19 -12 22 -31 33 -29 17 3 -19 -2 -27 -10 -15 -7 11 -9
11 -14 -1 -4 -11 2 -14 23 -12 30 3 35 -15 10 -38 -12 -10 -12 -9 -2 4 16 22
2 33 -15 11 -12 -16 -13 -15 -6 3 3 11 3 17 -1 13 -5 -4 -23 2 -41 12 -29 16
-35 17 -45 5 -7 -8 -17 -12 -22 -9 -5 3 -2 11 7 18 15 10 14 12 -4 12 -11 0
-19 -3 -19 -6 2 -18 -4 -23 -12 -10 -8 13 -10 12 -10 -4 0 -12 5 -16 15 -12 8
3 15 1 15 -4 0 -6 -8 -10 -18 -10 -10 0 -24 -6 -32 -12 -12 -11 -12 -10 -1 5
10 12 11 20 2 30 -6 8 -7 18 -3 22 4 5 1 5 -6 1 -11 -6 -11 -11 0 -23 11 -14
10 -15 -12 -8 -14 4 -30 11 -36 16 -7 6 -16 4 -24 -6 -7 -8 -17 -12 -22 -9 -5
3 -2 11 7 18 15 10 14 12 -4 12 -11 0 -19 -3 -19 -6 2 -18 -4 -23 -12 -10 -8
13 -10 12 -10 -4 0 -12 5 -16 15 -12 8 3 15 1 15 -4 0 -6 -8 -10 -18 -10 -10
0 -22 -3 -26 -7 -3 -4 -14 -8 -22 -9 -9 -1 -13 1 -9 4 4 4 12 7 18 7 21 0 17
23 -8 39 -14 9 -25 13 -24 9 3 -20 -2 -27 -11 -13 -8 13 -10 12 -10 -4 0 -12
5 -16 15 -12 8 3 15 1 15 -4 0 -6 -9 -10 -19 -10 -11 0 -22 -6 -25 -12 -3 -7
-3 -3 0 9 3 15 -1 25 -15 33 -17 9 -20 8 -15 -5 3 -8 11 -12 18 -8 7 3 6 1 -1
-7 -11 -12 -15 -11 -27 5 -8 11 -12 23 -10 27 2 4 -1 10 -8 14 -7 4 -10 4 -6
-1 11 -12 -11 -35 -28 -28 -8 3 -14 0 -14 -7 0 -6 5 -8 12 -4 7 4 8 3 4 -5 -4
-6 -11 -9 -16 -6 -5 3 -15 -2 -24 -10 -13 -14 -15 -13 -13 4 0 11 4 19 8 18 4
-1 7 1 8 6 1 4 -1 6 -4 5 -2 -2 -11 6 -20 17 -11 15 -14 16 -9 3z m7 -35 c-3
-7 -14 -13 -25 -13 -10 0 -16 -4 -13 -10 3 -5 2 -10 -3 -10 -14 0 -22 26 -11
37 14 14 58 11 52 -4z m104 -12 c2 -14 -3 -19 -22 -17 -23 1 -24 2 -8 14 9 6
13 12 9 12 -4 0 -4 5 -1 11 9 13 18 4 22 -20z m118 11 c-3 -3 -11 0 -18 7 -9
10 -8 11 6 5 10 -3 15 -9 12 -12z m144 -26 c0 -7 -2 -6 -6 2 -2 6 -13 12 -23
12 -20 0 -33 13 -24 23 9 8 54 -23 53 -37z m160 0 c0 -7 -2 -6 -6 2 -2 6 -13
12 -23 12 -20 0 -33 13 -24 23 9 8 54 -23 53 -37z m305 23 c-3 -5 -10 -7 -15
-4 -5 4 -9 1 -9 -5 0 -6 -4 -8 -10 -5 -5 3 -10 11 -10 16 0 6 4 8 9 4 5 -3 12
-1 16 5 4 6 11 8 16 4 5 -3 7 -10 3 -15z m-83 -8 c-6 -10 -7 -22 -3 -26 4 -5
1 -5 -6 -1 -9 5 -9 12 -2 27 6 10 13 19 16 19 2 0 0 -8 -5 -19z m242 -1 c-3
-11 -9 -20 -15 -20 -5 0 -4 9 2 20 6 11 12 20 14 20 2 0 2 -9 -1 -20z m-683
-8 c0 -5 -7 -9 -15 -9 -8 0 -12 4 -9 9 3 4 9 8 15 8 5 0 9 -4 9 -8z m160 0 c0
-5 -7 -9 -15 -9 -8 0 -12 4 -9 9 3 4 9 8 15 8 5 0 9 -4 9 -8z m726 -39 c-2
-10 -11 -19 -22 -20 -18 -3 -18 -2 1 6 11 5 16 10 12 10 -5 1 -5 6 -2 11 9 15
14 12 11 -7z m-51 -73 c-4 -6 -1 -19 6 -28 12 -16 12 -16 -5 0 -16 14 -15 38
0 38 3 0 2 -5 -1 -10z m-1272 -83 c-2 -4 1 -15 9 -24 11 -14 11 -16 -1 -9 -10
7 -12 3 -6 -15 7 -23 7 -24 -9 -4 -13 17 -15 17 -16 4 0 -23 -29 -32 -48 -17
-13 11 -15 10 -9 -4 4 -12 2 -15 -9 -11 -16 6 -19 23 -3 23 5 0 8 4 4 9 -9 16
34 34 49 21 16 -13 30 12 15 27 -5 5 -1 9 10 9 11 0 17 -4 14 -9z m54 -1 c0
-8 -6 -12 -15 -8 -11 4 -13 1 -7 -8 5 -9 4 -11 -3 -6 -17 10 -15 24 6 29 9 3
17 5 18 6 0 0 1 -5 1 -13z m1243 -26 c0 -5 -2 -10 -4 -10 -3 0 -8 5 -11 10 -3
6 -1 10 4 10 6 0 11 -4 11 -10z m-1624 -18 c-3 -3 -1 -11 5 -18 7 -9 6 -12 -6
-10 -8 1 -15 5 -15 9 0 4 0 14 0 23 0 8 5 12 11 9 6 -4 8 -10 5 -13z m1748
-13 c-3 -5 -9 -7 -14 -4 -4 3 -10 -1 -13 -7 -2 -7 -8 -9 -13 -5 -5 4 -2 12 6
17 8 6 11 10 7 10 -5 0 -5 5 -2 10 5 8 11 7 21 -1 7 -6 11 -15 8 -20z m159 17
c4 -10 1 -13 -8 -9 -8 3 -12 9 -9 14 7 12 11 11 17 -5z m-1548 -15 c3 -5 2
-12 -3 -15 -5 -3 -9 1 -9 9 0 17 3 19 12 6z m1774 -5 c8 -9 8 -16 2 -20 -5 -4
-12 -2 -16 4 -4 6 -11 7 -17 4 -6 -4 -1 -12 13 -20 l24 -12 -27 1 c-19 2 -25
7 -23 20 8 38 24 47 44 23z m-377 -22 c-12 -8 -20 -20 -17 -25 4 -5 4 -9 1 -9
-3 0 -7 4 -11 9 -6 11 21 41 38 41 6 0 1 -7 -11 -16z m-1672 -4 c0 -5 -2 -10
-4 -10 -3 0 -8 5 -11 10 -3 6 -1 10 4 10 6 0 11 -4 11 -10z m217 -9 c0 -11 -5
-18 -9 -15 -4 3 -5 11 -1 19 7 21 12 19 10 -4z m1338 1 c-3 -3 -11 0 -18 7 -9
10 -8 11 6 5 10 -3 15 -9 12 -12z m385 8 c0 -5 -8 -7 -17 -5 -10 1 -24 -2 -31
-8 -9 -7 -11 -6 -7 5 6 16 55 22 55 8z m-1965 -9 c3 -5 2 -12 -3 -15 -5 -3 -9
1 -9 9 0 17 3 19 12 6z m-145 -5 c0 -2 -7 -7 -16 -10 -8 -3 -12 -2 -9 4 6 10
25 14 25 6z m350 -6 c0 -5 -2 -10 -4 -10 -3 0 -8 5 -11 10 -3 6 -1 10 4 10 6
0 11 -4 11 -10z m1425 0 c3 -6 -1 -7 -9 -4 -18 7 -21 14 -7 14 6 0 13 -4 16
-10z m-1810 -68 c-3 -3 -11 0 -18 7 -9 10 -8 11 6 5 10 -3 15 -9 12 -12z m-35
-57 c-7 -9 -15 -13 -19 -10 -3 3 1 10 9 15 21 14 24 12 10 -5z m2330 1 c0 -2
-7 -7 -16 -10 -8 -3 -12 -2 -9 4 6 10 25 14 25 6z m39 -22 c-9 -11 -15 -12
-23 -4 -8 8 -7 13 4 20 20 12 33 1 19 -16z m-34 -14 c3 -5 1 -10 -4 -10 -6 0
-11 5 -11 10 0 6 2 10 4 10 3 0 8 -4 11 -10z m79 -37 c14 -18 21 -21 32 -13 8
7 22 9 36 4 13 -4 28 -7 33 -6 6 1 2 -4 -7 -11 -10 -8 -14 -18 -10 -23 4 -4
-1 -2 -10 5 -21 16 -38 7 -33 -19 2 -11 0 -22 -4 -25 -5 -2 -7 9 -6 25 2 20
-2 30 -11 30 -8 0 -14 -4 -14 -10 0 -5 -5 -10 -12 -10 -9 0 -9 3 0 12 7 7 12
16 12 22 0 6 -5 5 -12 -2 -7 -7 -17 -12 -22 -12 -6 0 -4 5 4 10 12 7 12 10 1
10 -7 0 -11 6 -8 14 4 11 -1 13 -21 10 -26 -4 -26 -3 -8 11 21 16 32 12 60
-22z m-2444 4 c0 -2 -10 -12 -22 -23 l-23 -19 19 23 c18 21 26 27 26 19z
m2397 -29 c-3 -8 -6 -5 -6 6 -1 11 2 17 5 13 3 -3 4 -12 1 -19z m-2567 -28 c0
-5 -5 -10 -11 -10 -5 0 -7 5 -4 10 3 6 8 10 11 10 2 0 4 -4 4 -10z m114 -32
c-3 -4 -11 -5 -19 -1 -21 7 -19 12 4 10 11 0 18 -5 15 -9z m-174 -17 c0 -4
-11 -8 -25 -9 -14 -1 -25 2 -25 6 0 4 11 8 25 8 14 1 25 -1 25 -5z m-7 -46
c-3 -9 -8 -14 -10 -11 -3 3 -2 9 2 15 9 16 15 13 8 -4z m-8 -75 c3 -6 -1 -7
-9 -4 -18 7 -21 14 -7 14 6 0 13 -4 16 -10z m8 -35 c4 -8 3 -16 -1 -19 -4 -3
-9 4 -9 15 -2 23 3 25 10 4z m-3 -41 c0 -8 -19 -13 -24 -6 -3 5 1 9 9 9 8 0
15 -2 15 -3z m2870 -126 c0 6 5 12 11 12 8 0 8 -5 -1 -15 -13 -16 -30 -11 -30
8 0 7 4 6 10 -3 6 -10 10 -11 10 -2z m13 -84 c-3 -8 -7 -14 -10 -14 -3 0 -3 6
0 14 3 7 0 20 -6 27 -10 11 -9 11 5 0 9 -7 14 -19 11 -27z m-2900 -17 c3 -8
-1 -14 -8 -14 -7 0 -11 6 -8 14 3 7 6 13 8 13 2 0 5 -6 8 -13z m3081 -53 c3
-8 2 -12 -4 -9 -6 3 -10 10 -10 16 0 14 7 11 14 -7z m-119 -4 c3 -5 1 -10 -4
-10 -6 0 -11 5 -11 10 0 6 2 10 4 10 3 0 8 -4 11 -10z m209 -86 c5 -13 4 -14
-7 -6 -8 7 -17 9 -20 5 -4 -3 -7 -1 -7 5 0 18 27 14 34 -4z m-3421 -40 c-7
-19 -10 -18 -16 5 -3 13 -1 18 9 14 7 -2 10 -11 7 -19z m3412 -36 c-1 -13 -5
-22 -8 -20 -4 1 -13 2 -19 2 -10 0 -10 2 -1 8 7 4 11 18 8 31 -3 18 -1 20 9
12 7 -6 12 -21 11 -33z m-3417 -5 c-1 -10 1 -24 5 -30 5 -8 3 -13 -3 -13 -6 0
-9 -4 -6 -8 2 -4 0 -14 -6 -22 -8 -13 -9 -12 -5 1 3 9 0 22 -6 29 -9 10 -9 11
1 6 6 -4 12 -2 12 3 0 6 -5 11 -11 11 -8 0 -9 4 0 13 6 8 8 17 4 20 -3 4 -1 7
6 7 7 0 11 -8 9 -17z m18 -83 c0 -12 -4 -16 -9 -11 -5 5 -6 14 -3 20 10 15 12
14 12 -9z m-16 -28 c0 -4 -5 -13 -12 -20 -14 -14 3 -16 20 -2 7 5 6 3 -2 -6
-17 -19 -43 -9 -27 10 6 7 8 16 4 19 -3 4 -1 7 5 7 7 0 12 -4 12 -8z m12 -70
c-7 -2 -10 -8 -6 -13 3 -5 0 -9 -6 -9 -6 0 -9 -4 -5 -9 3 -5 1 -12 -4 -15 -5
-4 -12 -2 -15 3 -4 5 -1 13 5 16 5 4 8 13 5 20 -6 18 3 25 22 17 10 -4 12 -7
4 -10z m4 -62 c0 -12 -4 -16 -9 -11 -5 5 -6 14 -3 20 10 15 12 14 12 -9z m-16
-28 c0 -4 -5 -13 -12 -20 -14 -14 3 -16 20 -2 7 5 6 3 -2 -6 -17 -19 -43 -9
-27 10 6 7 8 16 4 19 -3 4 -1 7 5 7 7 0 12 -4 12 -8z m4 -79 c-13 -13 -13 -18
-2 -25 10 -8 10 -9 -2 -6 -8 3 -14 14 -13 26 1 32 2 32 18 26 13 -5 12 -8 -1
-21z m31 -43 c3 -5 1 -10 -4 -10 -6 0 -11 5 -11 10 0 6 2 10 4 10 3 0 8 -4 11
-10z m3343 -105 c-3 -3 -9 2 -12 12 -6 14 -5 15 5 6 7 -7 10 -15 7 -18z
m-3378 -86 c0 -6 -4 -7 -10 -4 -5 3 -10 11 -10 16 0 6 5 7 10 4 6 -3 10 -11
10 -16z m3384 -45 c3 -8 2 -12 -4 -9 -6 3 -10 10 -10 16 0 14 7 11 14 -7z
m-3377 -1 c-9 -2 -15 -8 -12 -13 3 -5 1 -11 -4 -14 -7 -5 -8 11 -2 32 1 1 9 1
19 1 16 -1 16 -2 -1 -6z m2 -160 c-7 -10 -14 -19 -15 -21 -1 -2 -4 4 -8 13 -3
9 -2 13 3 10 5 -3 12 -1 16 5 3 5 9 10 12 10 3 0 -1 -8 -8 -17z m3369 -28 c-3
-3 -9 2 -12 12 -6 14 -5 15 5 6 7 -7 10 -15 7 -18z m-3379 -22 c-9 -10 -8 -13
1 -13 8 0 10 -3 7 -6 -8 -9 -38 16 -32 25 2 4 11 8 19 8 12 0 13 -4 5 -14z
m36 -33 c3 -5 1 -10 -4 -10 -6 0 -11 5 -11 10 0 6 2 10 4 10 3 0 8 -4 11 -10z
m3349 -76 c3 -8 2 -12 -4 -9 -6 3 -10 10 -10 16 0 14 7 11 14 -7z m-3368 -94
c0 -12 -4 -16 -9 -11 -5 5 -6 14 -3 20 10 15 12 14 12 -9z m-16 -28 c0 -4 -5
-13 -12 -20 -14 -14 3 -16 20 -2 7 5 6 3 -2 -6 -17 -19 -43 -9 -27 10 6 7 8
16 4 19 -3 4 -1 7 5 7 7 0 12 -4 12 -8z m12 -70 c-7 -2 -10 -8 -6 -13 3 -5 0
-9 -6 -9 -6 0 -9 -4 -5 -9 3 -5 1 -12 -4 -15 -5 -4 -12 -2 -15 3 -4 5 -1 13 5
16 5 4 8 13 5 20 -6 18 3 25 22 17 10 -4 12 -7 4 -10z m4 -62 c0 -12 -4 -16
-9 -11 -5 5 -6 14 -3 20 10 15 12 14 12 -9z m3364 -10 c0 -5 -5 -10 -11 -10
-5 0 -7 5 -4 10 3 6 8 10 11 10 2 0 4 -4 4 -10z m-3380 -18 c0 -4 -5 -13 -12
-20 -14 -14 3 -16 20 -2 7 5 6 3 -2 -6 -17 -19 -43 -9 -27 10 6 7 8 16 4 19
-3 4 -1 7 5 7 7 0 12 -4 12 -8z m12 -70 c-7 -2 -9 -9 -5 -15 4 -7 -1 -6 -10 2
-20 16 -13 33 10 24 11 -4 13 -8 5 -11z m-7 -49 l18 -28 -21 19 c-12 11 -22
23 -22 28 0 14 7 9 25 -19z m3379 1 c5 -14 4 -15 -9 -4 -17 14 -19 20 -6 20 5
0 12 -7 15 -16z m-3384 -35 c0 -6 -4 -7 -10 -4 -5 3 -10 11 -10 16 0 6 5 7 10
4 6 -3 10 -11 10 -16z m3405 -22 c1 -14 -3 -23 -8 -20 -4 3 -6 12 -2 21 3 8 0
19 -7 24 -10 7 -9 9 2 5 8 -2 15 -15 15 -30z m-3398 -24 c-9 -2 -15 -8 -12
-13 3 -5 1 -11 -4 -14 -7 -5 -8 11 -2 32 1 1 9 1 19 1 16 -1 16 -2 -1 -6z m2
-160 c-7 -10 -14 -19 -15 -21 -1 -2 -4 4 -8 13 -3 9 -2 13 3 10 5 -3 12 -1 16
5 3 5 9 10 12 10 3 0 -1 -8 -8 -17z m3343 -276 c-7 -8 -8 -18 -4 -22 4 -5 1
-5 -5 -1 -10 5 -10 11 -1 26 7 11 14 17 17 15 2 -3 -1 -11 -7 -18z m-3251 -10
c-6 -8 -9 -16 -6 -19 3 -2 -2 -5 -10 -5 -19 0 -19 2 1 21 19 19 31 21 15 3z
m3070 -10 c-10 -9 -11 -8 -5 6 3 10 9 15 12 12 3 -3 0 -11 -7 -18z m-4 -36 c0
-11 -5 -18 -9 -15 -4 3 -5 11 -1 19 7 21 12 19 10 -4z m-2890 -23 c2 -17 0
-19 -7 -8 -5 8 -6 18 -4 22 8 12 10 10 11 -14z m2873 -10 c0 -4 -4 -8 -9 -8
-6 0 -12 4 -15 8 -3 5 1 9 9 9 8 0 15 -4 15 -9z m-4 -50 c11 -17 13 -58 4 -58
-5 0 -12 5 -15 10 -3 6 -1 10 4 10 6 0 11 5 11 10 0 7 -7 7 -22 0 -22 -11 -23
-11 -3 5 17 14 18 17 5 25 -9 6 -10 10 -3 10 6 0 15 -5 19 -12z m1 -74 c-3 -3
-12 -4 -19 -1 -8 3 -5 6 6 6 11 1 17 -2 13 -5z m8 -101 c0 -14 -9 -29 -20 -34
-18 -10 -19 -9 -2 4 9 8 17 17 17 20 0 4 -8 4 -17 1 -14 -5 -15 -4 -4 4 7 5
11 14 8 19 -3 5 0 10 6 10 7 0 13 -11 12 -24z m-15 -113 c0 -5 -5 -10 -11 -10
-5 0 -7 5 -4 10 3 6 8 10 11 10 2 0 4 -4 4 -10z m19 -49 c2 -1 -2 -7 -8 -14
-6 -8 -8 -18 -4 -23 4 -5 1 -3 -7 3 -7 7 -15 19 -16 27 -2 12 4 13 35 7z
m-2762 -53 c2 -17 0 -19 -7 -8 -5 8 -6 18 -4 22 8 12 10 10 11 -14z m2611 2
c-7 -10 -14 -17 -17 -15 -4 4 18 35 25 35 2 0 -1 -9 -8 -20z m92 6 c0 -3 -4
-8 -10 -11 -5 -3 -10 -1 -10 4 0 6 5 11 10 11 6 0 10 -2 10 -4z m-2663 -21 c0
-8 -4 -12 -9 -9 -5 3 -6 10 -3 15 9 13 12 11 12 -6z m-121 -11 c-4 -9 -1 -24
6 -33 10 -14 9 -14 -6 1 -17 15 -17 48 0 48 3 0 3 -7 0 -16z m2581 -9 c0 -8
-4 -12 -9 -9 -5 3 -6 10 -3 15 9 13 12 11 12 -6z m214 -8 c-1 -12 -15 -9 -19
4 -3 6 1 10 8 8 6 -3 11 -8 11 -12z m-254 -102 c0 -8 -4 -12 -9 -9 -5 3 -6 10
-3 15 9 13 12 11 12 -6z m-2317 -55 c0 -5 -4 -10 -10 -10 -5 0 -9 -4 -7 -9 1
-5 -1 -9 -5 -10 -8 -1 -8 6 -1 27 6 14 23 16 23 2z m35 -19 c3 -5 2 -12 -3
-15 -5 -3 -9 1 -9 9 0 17 3 19 12 6z m5 -35 c0 -2 -7 -7 -16 -10 -8 -3 -12 -2
-9 4 6 10 25 14 25 6z m256 -32 c-3 -9 2 -18 14 -22 19 -7 19 -8 -1 -20 -12
-8 -18 -9 -14 -3 3 6 3 17 -1 23 -11 18 -12 48 -2 42 5 -4 7 -12 4 -20z m-222
0 c3 -8 2 -12 -4 -9 -6 3 -10 10 -10 16 0 14 7 11 14 -7z m346 10 c0 -8 -19
-13 -24 -6 -3 5 1 9 9 9 8 0 15 -2 15 -3z m1680 -24 c0 -5 -2 -10 -4 -10 -3 0
-8 5 -11 10 -3 6 -1 10 4 10 6 0 11 -4 11 -10z m-1998 -12 c30 2 31 2 22 -22
-5 -13 -8 -14 -28 -1 -13 8 -26 12 -29 8 -4 -3 -7 0 -7 7 0 9 -5 8 -19 -4 -13
-11 -21 -14 -26 -7 -7 13 35 32 50 23 5 -3 22 -5 37 -4z m278 8 c0 -3 -4 -8
-10 -11 -5 -3 -10 -1 -10 4 0 6 5 11 10 11 6 0 10 -2 10 -4z m60 -6 c0 -5 -7
-7 -15 -4 -8 4 -15 8 -15 10 0 2 7 4 15 4 8 0 15 -4 15 -10z m1334 -28 c3 -5
-1 -9 -9 -9 -8 0 -12 4 -9 9 3 4 7 8 9 8 2 0 6 -4 9 -8z m-1257 -78 c-9 -9
-28 6 -21 18 4 6 10 6 17 -1 6 -6 8 -13 4 -17z m7 -30 c9 -24 2 -26 -12 -4 -7
11 -8 20 -3 20 5 0 12 -7 15 -16z m1231 -42 c-3 -3 -11 0 -18 7 -9 10 -8 11 6
5 10 -3 15 -9 12 -12z m59 -23 c-19 -21 -34 -25 -34 -8 0 5 5 7 12 3 7 -5 9
-2 5 8 -7 20 1 28 19 21 13 -5 12 -8 -2 -24z m-1275 -32 c10 3 8 0 -4 -8 -27
-17 -28 -17 -31 5 -2 13 1 15 8 8 6 -6 18 -8 27 -5z m1257 1 c4 4 2 -1 -5 -10
-7 -10 -17 -15 -23 -12 -5 3 -16 0 -24 -7 -12 -10 -13 -9 -8 5 3 9 13 16 21
16 9 0 11 5 7 13 -6 9 -5 9 8 0 8 -7 19 -9 24 -5z m-1083 -13 c-3 -9 -8 -14
-10 -11 -3 3 -2 9 2 15 9 16 15 13 8 -4z m146 -21 c1 5 7 3 15 -3 11 -9 20
-10 35 -1 12 6 21 8 21 4 0 -3 7 -1 15 6 9 7 15 8 15 2 0 -18 -64 -36 -85 -23
-5 3 -14 6 -20 6 -5 0 -11 9 -12 20 l-3 20 9 -20 c5 -11 10 -16 10 -11z m41
16 c0 -5 -5 -10 -11 -10 -5 0 -7 5 -4 10 3 6 8 10 11 10 2 0 4 -4 4 -10z m390
0 c-8 -5 -19 -10 -25 -10 -5 0 -3 5 5 10 8 5 20 10 25 10 6 0 3 -5 -5 -10z
m160 0 c-8 -5 -19 -10 -25 -10 -5 0 -3 5 5 10 8 5 20 10 25 10 6 0 3 -5 -5
-10z m-246 -51 c-7 -13 -24 7 -24 29 0 10 4 10 16 -2 8 -9 12 -21 8 -27z m160
0 c-7 -13 -24 7 -24 29 0 10 4 10 16 -2 8 -9 12 -21 8 -27z m-554 10 c0 -15
-18 -19 -23 -6 -3 8 1 14 9 14 8 0 14 -4 14 -8z"/>
<path d="M1835 4251 c-3 -6 -12 -8 -18 -5 -7 4 -4 -1 5 -12 14 -14 21 -15 30
-6 9 9 9 15 1 23 -8 8 -13 8 -18 0z"/>
<path d="M2635 4531 c-3 -5 -2 -12 3 -15 5 -3 9 1 9 9 0 17 -3 19 -12 6z"/>
<path d="M1895 4520 c3 -5 8 -10 11 -10 2 0 4 5 4 10 0 6 -5 10 -11 10 -5 0
-7 -4 -4 -10z"/>
<path d="M3115 4520 c3 -5 8 -10 11 -10 2 0 4 5 4 10 0 6 -5 10 -11 10 -5 0
-7 -4 -4 -10z"/>
<path d="M3143 4506 c-1 -12 1 -15 4 -8 3 6 8 10 12 8 4 -3 8 1 8 8 0 22 -23
14 -24 -8z"/>
<path d="M1930 4505 c-7 -9 -18 -14 -25 -12 -6 3 -12 -4 -12 -14 -1 -10 3 -19
8 -19 6 0 8 4 5 9 -3 5 1 11 8 14 8 3 16 1 19 -6 2 -8 5 -8 11 1 4 7 2 12 -5
12 -8 0 -8 4 1 15 7 8 10 15 7 15 -2 0 -10 -7 -17 -15z"/>
<path d="M3215 4500 c3 -5 8 -10 11 -10 2 0 4 5 4 10 0 6 -5 10 -11 10 -5 0
-7 -4 -4 -10z"/>
<path d="M1834 4446 c1 -8 5 -18 8 -22 4 -3 5 1 4 10 -1 8 -5 18 -8 22 -4 3
-5 -1 -4 -10z"/>
<path d="M3266 4382 c-3 -5 1 -9 9 -9 8 0 12 4 9 9 -3 4 -7 8 -9 8 -2 0 -6 -4
-9 -8z"/>
<path d="M3210 4365 c-11 -13 -10 -14 4 -9 9 3 16 10 16 15 0 13 -6 11 -20 -6z"/>
<path d="M3561 4286 c14 -15 20 -16 35 -6 18 11 18 11 0 6 -10 -4 -26 -1 -35
6 -14 11 -14 10 0 -6z"/>
<path d="M1440 4286 c0 -2 8 -10 18 -17 15 -13 16 -12 3 4 -13 16 -21 21 -21
13z"/>
<path d="M1503 4278 c-6 -9 -5 -21 2 -36 7 -13 15 -19 19 -14 3 5 -1 15 -9 22
-12 10 -13 16 -4 26 6 8 9 14 6 14 -2 0 -9 -6 -14 -12z"/>
<path d="M1661 4274 c0 -11 3 -14 6 -6 3 7 2 16 -1 19 -3 4 -6 -2 -5 -13z"/>
<path d="M1766 4282 c-3 -5 1 -9 9 -9 8 0 12 4 9 9 -3 4 -7 8 -9 8 -2 0 -6 -4
-9 -8z"/>
<path d="M3344 4279 c-4 -8 -3 -9 4 -5 7 4 12 3 12 -3 0 -5 -5 -13 -10 -16
-11 -7 -4 -25 9 -25 11 0 11 49 0 55 -4 3 -11 0 -15 -6z"/>
<path d="M1596 4253 c14 -10 14 -13 3 -13 -12 0 -12 -2 1 -10 10 -6 18 -5 25
2 7 7 6 12 -3 15 -6 3 -10 8 -8 12 3 4 -4 7 -15 7 -19 0 -19 -1 -3 -13z"/>
<path d="M1744 4263 c8 -14 3 -15 -61 -15 -33 0 -39 -3 -30 -13 7 -7 17 -10
22 -7 18 11 39 11 52 0 9 -7 14 -6 19 6 4 12 10 14 19 6 8 -7 12 -5 12 5 0 8
-3 13 -5 10 -3 -3 -12 1 -20 8 -13 9 -14 9 -8 0z"/>
<path d="M3410 4259 c0 -6 -6 -9 -13 -6 -8 3 -14 -1 -14 -8 0 -10 5 -11 18 -4
22 11 34 29 20 29 -6 0 -11 -5 -11 -11z"/>
<path d="M3543 4264 c4 -4 1 -14 -6 -23 -10 -14 -10 -14 5 -3 13 10 17 10 21
0 4 -9 6 -8 6 3 1 9 -7 20 -16 23 -10 4 -14 4 -10 0z"/>
<path d="M3580 4256 c0 -2 7 -9 15 -16 9 -7 15 -8 15 -2 0 5 -7 12 -15 16 -8
3 -15 4 -15 2z"/>
<path d="M3726 4241 c-3 -5 1 -11 9 -14 9 -4 12 -1 8 9 -6 16 -10 17 -17 5z"/>
<path d="M1326 4158 c3 -4 9 -8 15 -8 5 0 9 4 9 8 0 5 -7 9 -15 9 -8 0 -12 -4
-9 -9z"/>
<path d="M3790 4160 c0 -5 5 -10 11 -10 5 0 7 5 4 10 -3 6 -8 10 -11 10 -2 0
-4 -4 -4 -10z"/>
<path d="M3936 4033 c-6 -14 -5 -15 5 -6 7 7 10 15 7 18 -3 3 -9 -2 -12 -12z"/>
<path d="M3835 4030 c-3 -5 -2 -18 4 -27 7 -14 9 -12 8 10 -2 30 -3 31 -12 17z"/>
<path d="M1175 4021 c-3 -5 -2 -12 3 -15 5 -3 9 1 9 9 0 17 -3 19 -12 6z"/>
<path d="M1201 3994 c0 -11 3 -14 6 -6 3 7 2 16 -1 19 -3 4 -6 -2 -5 -13z"/>
<path d="M1305 3990 c-19 -20 -4 -22 29 -4 15 9 16 12 3 17 -8 3 -23 -3 -32
-13z"/>
<path d="M1110 3945 c-11 -13 -10 -14 6 -8 17 6 17 5 5 -10 -8 -10 -11 -20 -8
-23 9 -10 26 31 18 45 -6 9 -11 8 -21 -4z"/>
<path d="M1070 3919 c0 -5 5 -7 10 -4 6 3 10 8 10 11 0 2 -4 4 -10 4 -5 0 -10
-5 -10 -11z"/>
<path d="M1075 3846 c1 -14 5 -28 8 -31 4 -3 5 -2 2 2 -3 3 1 11 8 17 7 6 10
10 8 9 -2 -2 -9 4 -15 13 -10 13 -12 11 -11 -10z"/>
<path d="M4040 3806 c0 -2 8 -10 18 -17 15 -13 16 -12 3 4 -13 16 -21 21 -21
13z"/>
<path d="M1080 3716 c14 -18 13 -19 -5 -12 -16 6 -18 5 -7 -5 10 -11 15 -10
25 1 7 8 11 14 8 13 -2 -2 -11 3 -20 10 -14 11 -15 10 -1 -7z"/>
<path d="M1084 3648 c22 -33 22 -33 22 -8 0 10 -2 17 -5 15 -2 -3 -11 1 -19 8
-11 9 -11 4 2 -15z"/>
<path d="M1075 3605 c0 -13 3 -21 8 -18 4 2 7 10 7 18 0 8 -3 16 -7 18 -5 3
-8 -5 -8 -18z"/>
<path d="M1035 3460 c-3 -5 -1 -10 4 -10 6 0 11 5 11 10 0 6 -2 10 -4 10 -3 0
-8 -4 -11 -10z"/>
<path d="M4260 3416 c0 -2 7 -7 16 -10 8 -3 12 -2 9 4 -6 10 -25 14 -25 6z"/>
<path d="M835 3370 c-4 -6 -11 -7 -17 -4 -7 4 -8 2 -4 -5 6 -9 11 -9 22 0 14
11 20 -1 7 -15 -11 -10 -12 -36 -2 -36 5 0 9 3 10 8 0 4 2 17 5 29 4 24 -11
40 -21 23z"/>
<path d="M4316 3075 c-11 -8 -15 -15 -9 -15 6 0 16 7 23 15 16 19 11 19 -14 0z"/>
<path d="M4287 2876 c-12 -10 -15 -16 -7 -21 6 -4 9 -13 7 -19 -3 -7 1 -13 8
-13 11 0 11 5 4 19 -7 14 -7 24 2 34 14 18 9 18 -14 0z"/>
<path d="M4310 2865 c0 -5 5 -17 10 -25 5 -8 10 -10 10 -5 0 6 -5 17 -10 25
-5 8 -10 11 -10 5z"/>
<path d="M4310 2699 c0 -5 5 -7 10 -4 6 3 10 8 10 11 0 2 -4 4 -10 4 -5 0 -10
-5 -10 -11z"/>
<path d="M4279 2633 c-10 -11 -10 -14 -2 -9 9 5 12 0 10 -15 -1 -12 4 -23 11
-25 7 -1 8 0 2 3 -5 2 -10 9 -10 14 0 6 3 8 8 6 4 -3 8 6 8 19 2 28 -8 31 -27
7z"/>
<path d="M4310 2545 c0 -5 5 -17 10 -25 5 -8 10 -10 10 -5 0 6 -5 17 -10 25
-5 8 -10 11 -10 5z"/>
<path d="M4310 2379 c0 -5 5 -7 10 -4 6 3 10 8 10 11 0 2 -4 4 -10 4 -5 0 -10
-5 -10 -11z"/>
<path d="M4279 2313 c-10 -11 -10 -14 -2 -9 9 5 12 0 10 -15 -1 -12 4 -23 11
-25 7 -1 8 0 2 3 -5 2 -10 9 -10 14 0 6 3 8 8 6 4 -3 8 6 8 19 2 28 -8 31 -27
7z"/>
<path d="M4271 2097 c-19 -24 5 -88 33 -86 6 0 5 3 -3 6 -11 5 -11 7 0 15 11
8 10 9 -3 4 -22 -7 -23 1 -3 20 8 9 15 21 14 27 0 8 -2 8 -6 -1 -2 -6 -9 -10
-13 -7 -5 3 -7 12 -3 20 7 19 -1 19 -16 2z m14 -26 c3 -5 2 -12 -3 -15 -5 -3
-9 1 -9 9 0 17 3 19 12 6z"/>
<path d="M4316 2047 c3 -10 9 -15 12 -12 3 3 0 11 -7 18 -10 9 -11 8 -5 -6z"/>
<path d="M4281 1991 c-10 -6 -10 -10 -1 -16 6 -4 9 -13 7 -19 -3 -7 1 -13 8
-13 10 0 11 5 4 19 -5 10 -7 23 -4 28 8 12 4 12 -14 1z"/>
<path d="M4279 1913 c-10 -11 -10 -14 -2 -9 9 5 12 0 10 -15 -1 -12 4 -23 11
-25 7 -1 8 0 2 3 -5 2 -10 9 -10 14 0 6 5 7 11 3 8 -4 8 0 0 15 -13 23 -3 28
19 9 12 -11 12 -10 1 5 -17 21 -25 21 -42 0z"/>
<path d="M4308 1843 c7 -3 16 -2 19 1 4 3 -2 6 -13 5 -11 0 -14 -3 -6 -6z"/>
<path d="M4312 1794 c-7 -8 -8 -14 -3 -14 10 0 25 19 20 25 -2 1 -10 -3 -17
-11z"/>
<path d="M4280 1535 c-13 -16 -7 -30 13 -30 5 0 12 -6 15 -14 3 -9 0 -11 -8
-6 -8 5 -11 4 -6 -3 4 -6 13 -9 22 -5 13 5 13 7 -1 23 -8 9 -12 20 -8 23 3 4
0 7 -8 7 -11 0 -11 2 1 10 8 5 10 10 4 10 -6 0 -17 -7 -24 -15z"/>
<path d="M4252 1367 c-8 -9 -4 -15 14 -24 21 -10 23 -9 15 1 -6 7 -8 15 -5 18
3 3 1 9 -4 12 -5 3 -14 0 -20 -7z"/>
<path d="M835 1329 c-4 -6 -5 -12 -2 -15 2 -3 7 2 10 11 7 17 1 20 -8 4z"/>
<path d="M4165 1330 c7 -11 65 -43 65 -36 0 2 -16 13 -36 25 -19 12 -32 16
-29 11z"/>
<path d="M4250 1336 c0 -2 8 -10 18 -17 15 -13 16 -12 3 4 -13 16 -21 21 -21
13z"/>
<path d="M935 1301 c-3 -5 0 -13 6 -17 7 -4 9 -3 5 4 -3 5 0 13 6 15 9 4 10 6
1 6 -6 1 -14 -3 -18 -8z"/>
<path d="M4155 1300 c3 -5 8 -10 11 -10 2 0 4 5 4 10 0 6 -5 10 -11 10 -5 0
-7 -4 -4 -10z"/>
<path d="M1088 1209 c6 -7 12 -16 12 -21 0 -4 -6 -6 -12 -4 -7 1 -10 1 -5 -1
4 -3 7 -9 7 -14 0 -6 -6 -7 -12 -3 -7 4 -10 4 -6 -1 4 -4 2 -15 -5 -24 -11
-14 -10 -15 7 -1 18 14 19 13 13 -3 -4 -11 -3 -16 3 -12 6 3 10 2 10 -4 0 -5
-3 -11 -7 -14 -5 -2 -3 -2 4 -1 6 2 14 -2 16 -9 2 -7 4 2 3 20 -1 17 -4 35 -8
39 -4 3 -3 15 2 25 8 14 6 21 -12 30 -19 9 -21 9 -10 -2z m20 -74 c-3 -3 -9 2
-12 12 -6 14 -5 15 5 6 7 -7 10 -15 7 -18z"/>
<path d="M1086 1044 c-9 -24 -2 -26 12 -4 7 11 8 20 3 20 -5 0 -12 -7 -15 -16z"/>
<path d="M4040 966 c0 -2 8 -10 18 -17 15 -13 16 -12 3 4 -13 16 -21 21 -21
13z"/>
<path d="M1063 917 c-3 -6 -1 -7 6 -3 6 4 14 0 17 -8 3 -9 11 -16 16 -16 7 0
6 5 -1 13 -6 8 -9 16 -6 19 3 2 -2 5 -10 5 -9 0 -19 -5 -22 -10z"/>
<path d="M1210 805 c-11 -13 -10 -14 4 -9 9 3 16 10 16 15 0 13 -6 11 -20 -6z"/>
<path d="M3836 793 c-8 -8 -12 -9 -39 -12 -8 0 -13 -9 -12 -18 1 -20 24 -64
25 -47 0 5 -5 15 -12 22 -17 17 3 15 32 -4 19 -11 17 -9 -4 10 -23 19 -26 24
-10 21 10 -2 19 -4 19 -5 0 -1 8 -3 18 -5 9 -2 15 1 11 6 -3 5 -1 9 4 9 5 0 9
7 9 16 0 12 -4 11 -17 -6 -10 -14 -20 -19 -24 -12 -3 6 0 12 6 15 7 2 10 7 7
11 -3 3 -9 3 -13 -1z"/>
<path d="M1153 750 c1 -21 10 -18 13 5 1 8 -2 15 -6 15 -5 0 -8 -9 -7 -20z"/>
<path d="M1234 756 c1 -8 5 -18 8 -22 4 -3 5 1 4 10 -1 8 -5 18 -8 22 -4 3 -5
-1 -4 -10z"/>
<path d="M1345 753 c12 -14 17 -15 27 -4 11 11 10 13 -3 8 -9 -3 -22 -1 -28 4
-6 5 -4 1 4 -8z"/>
<path d="M3880 756 c0 -2 7 -7 16 -10 8 -3 12 -2 9 4 -6 10 -25 14 -25 6z"/>
<path d="M3935 740 c-3 -5 -1 -10 4 -10 6 0 11 5 11 10 0 6 -2 10 -4 10 -3 0
-8 -4 -11 -10z"/>
<path d="M1310 700 c0 -6 7 -10 15 -10 8 0 15 2 15 4 0 2 -7 6 -15 10 -8 3
-15 1 -15 -4z"/>
<path d="M3721 550 c-17 -23 -18 -30 -7 -30 8 0 17 4 21 10 3 5 13 7 23 4 16
-5 16 -5 0 6 -19 11 -26 36 -8 25 11 -7 55 -16 49 -11 -2 3 -8 5 -14 6 -5 1
-17 6 -26 11 -12 6 -22 0 -38 -21z"/>
<path d="M1366 518 c3 -5 10 -6 15 -3 13 9 11 12 -6 12 -8 0 -12 -4 -9 -9z"/>
<path d="M1559 516 c0 -1 -2 -12 -5 -25 l-4 -25 18 22 c19 21 33 21 28 -1 -2
-7 -1 -9 1 -4 3 4 8 5 13 2 5 -3 7 3 6 12 -2 11 -13 18 -29 18 -15 1 -27 1
-28 1z"/>
<path d="M3345 510 c-4 -6 -11 -7 -17 -4 -6 4 -8 2 -4 -4 3 -5 0 -13 -6 -16
-7 -3 -2 -3 11 0 13 4 21 2 18 -3 -4 -5 0 -10 8 -10 8 0 12 4 9 8 -2 4 -1 9 3
12 5 2 2 2 -6 0 -8 -2 -11 2 -7 12 6 17 0 20 -9 5z"/>
<path d="M3479 516 c-1 -3 -2 -9 -3 -13 -1 -5 -5 -14 -10 -21 -7 -11 -4 -11
13 0 12 7 21 16 21 20 0 9 -20 21 -21 14z"/>
<path d="M1820 502 c0 -7 5 -12 10 -12 6 0 10 -5 10 -11 0 -5 -5 -7 -12 -3 -7
5 -8 3 -3 -6 6 -10 11 -9 21 4 11 16 13 16 19 -3 7 -23 20 -27 30 -11 4 6 1 9
-7 8 -8 -2 -12 5 -11 20 3 19 0 21 -16 13 -12 -7 -22 -6 -29 1 -9 9 -12 9 -12
0z"/>
<path d="M3433 489 c-1 -10 3 -19 8 -19 6 0 8 4 5 9 -4 5 -1 11 6 13 8 3 7 6
-3 10 -10 4 -15 -1 -16 -13z"/>
<path d="M3510 505 c0 -7 30 -13 34 -7 3 4 -4 9 -15 9 -10 1 -19 0 -19 -2z"/>
<path d="M1796 485 c4 -8 8 -15 10 -15 2 0 4 7 4 15 0 8 -4 15 -10 15 -5 0 -7
-7 -4 -15z"/>
<path d="M1466 482 c-2 -4 4 -8 14 -8 10 0 16 4 14 8 -3 4 -9 8 -14 8 -5 0
-11 -4 -14 -8z"/>
<path d="M1720 482 c0 -5 7 -9 15 -9 8 0 12 4 9 9 -3 4 -9 8 -15 8 -5 0 -9 -4
-9 -8z"/>
<path d="M3510 480 c0 -5 5 -10 11 -10 5 0 7 5 4 10 -3 6 -8 10 -11 10 -2 0
-4 -4 -4 -10z"/>
<path d="M3585 480 c3 -5 8 -10 11 -10 2 0 4 5 4 10 0 6 -5 10 -11 10 -5 0 -7
-4 -4 -10z"/>
<path d="M1853 441 c2 -11 7 -24 12 -28 4 -5 5 -3 2 4 -4 6 -3 13 2 15 5 1 3
9 -5 16 -12 11 -13 9 -11 -7z"/>
<path d="M1884 374 c9 -8 13 -21 9 -27 -4 -7 -9 -4 -15 9 -8 18 -8 18 -5 -1 1
-11 10 -21 19 -23 13 -2 16 2 13 17 -5 28 -14 41 -26 41 -6 0 -3 -7 5 -16z"/>
<path d="M3256 334 c-8 -20 -8 -24 2 -24 4 0 8 9 9 20 2 24 -3 26 -11 4z"/>
<path d="M1875 290 c3 -5 8 -10 11 -10 2 0 4 5 4 10 0 6 -5 10 -11 10 -5 0 -7
-4 -4 -10z"/>
<path d="M3215 261 c-3 -5 -2 -12 3 -15 5 -3 9 1 9 9 0 17 -3 19 -12 6z"/>
<path d="M3253 263 c4 -3 1 -13 -6 -22 -11 -14 -10 -14 5 -2 16 12 16 31 1 31
-4 0 -3 -3 0 -7z"/>
<path d="M2045 250 c-4 -6 -4 -14 -1 -17 3 -4 6 0 6 8 0 12 2 12 10 -1 5 -8
12 -12 15 -9 3 4 -1 12 -9 18 -10 9 -16 9 -21 1z"/>
<path d="M2646 252 c-2 -4 -1 -14 3 -21 6 -10 10 -9 14 3 6 16 -8 32 -17 18z"/>
<path d="M2695 249 c-10 -15 3 -25 16 -12 7 7 7 13 1 17 -6 3 -14 1 -17 -5z"/>
<path d="M2806 252 c-2 -4 -1 -14 3 -21 6 -10 10 -9 14 3 6 16 -8 32 -17 18z"/>
<path d="M2991 244 c5 -6 5 -15 1 -20 -4 -5 2 -1 14 9 11 9 23 14 26 11 3 -3
9 -1 12 5 4 6 -7 9 -28 8 -23 -1 -31 -5 -25 -13z"/>
<path d="M2021 238 c-1 -12 -7 -16 -18 -12 -15 5 -16 4 -3 -5 17 -12 35 1 27
21 -4 9 -6 8 -6 -4z"/>
<path d="M2456 222 c-3 -5 1 -9 9 -9 8 0 12 4 9 9 -3 4 -7 8 -9 8 -2 0 -6 -4
-9 -8z"/>
<path d="M2936 222 c-3 -5 1 -9 9 -9 8 0 12 4 9 9 -3 4 -7 8 -9 8 -2 0 -6 -4
-9 -8z"/>
<path d="M3016 222 c-3 -5 1 -9 9 -9 8 0 12 4 9 9 -3 4 -7 8 -9 8 -2 0 -6 -4
-9 -8z"/>
<path d="M3108 223 c7 -3 16 -2 19 1 4 3 -2 6 -13 5 -11 0 -14 -3 -6 -6z"/>
</g>
</svg>
