<?xml version="1.0" standalone="no"?>
<!DOCTYPE svg PUBLIC "-//W3C//DTD SVG 20010904//EN"
 "http://www.w3.org/TR/2001/REC-SVG-20010904/DTD/svg10.dtd">
<svg version="1.0" xmlns="http://www.w3.org/2000/svg"
 width="900.000000pt" height="900.000000pt" viewBox="0 0 900.000000 900.000000"
 preserveAspectRatio="xMidYMid meet">
<metadata>
Created by potrace 1.11, written by Peter Selinger 2001-2013
</metadata>
<g transform="translate(0.000000,900.000000) scale(0.100000,-0.100000)"
fill="#000000" stroke="none">
<path d="M4249 8956 c-2 -2 -49 -6 -104 -10 -55 -3 -109 -8 -120 -10 -11 -2
-51 -7 -88 -11 -37 -3 -78 -8 -90 -11 -12 -2 -39 -6 -62 -9 -22 -4 -96 -18
-165 -31 -846 -170 -1617 -577 -2230 -1178 -293 -287 -492 -537 -717 -901
-132 -214 -285 -541 -383 -817 -48 -136 -122 -390 -136 -468 -3 -14 -11 -53
-19 -88 -8 -34 -17 -77 -20 -95 -21 -121 -25 -146 -29 -182 -3 -22 -9 -58 -12
-80 -4 -22 -8 -53 -9 -70 -1 -16 -6 -73 -11 -125 -16 -172 -8 -828 11 -860 1
-3 6 -34 9 -70 15 -145 76 -461 107 -557 5 -18 12 -40 13 -50 15 -78 110 -361
166 -498 68 -164 74 -179 161 -350 167 -329 335 -583 567 -859 283 -335 608
-622 982 -868 389 -255 900 -479 1330 -583 36 -8 72 -17 80 -19 29 -7 225 -48
245 -51 11 -2 52 -8 91 -14 40 -6 96 -13 125 -16 30 -3 63 -8 74 -10 131 -27
802 -27 966 0 13 2 51 6 83 10 50 5 152 22 321 51 17 3 48 10 70 16 22 5 51
12 65 14 56 10 260 67 385 109 353 117 712 290 1025 493 104 67 357 252 391
284 8 7 30 26 49 42 149 122 387 358 520 516 30 35 60 70 65 76 6 6 37 47 70
90 33 43 65 85 72 92 20 20 223 328 223 337 0 5 6 16 14 24 26 31 197 358 245
471 88 205 167 422 211 580 75 265 140 624 158 875 14 201 7 723 -12 835 -3
14 -7 52 -11 85 -13 123 -56 354 -96 514 -123 496 -342 990 -622 1406 -44 66
-229 315 -249 336 -7 8 -35 41 -63 74 -118 142 -355 378 -500 500 -33 28 -62
53 -65 56 -15 18 -281 213 -376 276 -420 276 -909 490 -1394 608 -71 18 -367
75 -415 80 -32 3 -62 8 -65 10 -3 2 -46 6 -95 10 -50 4 -99 9 -110 12 -24 6
-620 14 -626 9z m601 -431 c25 -2 63 -7 85 -9 22 -3 60 -8 85 -11 25 -3 56 -8
70 -10 14 -2 56 -9 94 -15 37 -6 100 -18 140 -26 39 -9 82 -18 95 -20 132 -26
395 -110 592 -190 1208 -486 2110 -1534 2419 -2809 21 -87 72 -377 84 -480 26
-218 27 -759 1 -893 -2 -11 -6 -49 -10 -84 -3 -35 -8 -70 -10 -78 -3 -8 -7
-31 -9 -50 -32 -245 -164 -698 -273 -938 -186 -413 -361 -696 -628 -1017 -250
-302 -603 -607 -955 -826 -88 -55 -329 -189 -339 -189 -3 0 -19 -7 -36 -16
-57 -30 -270 -121 -360 -153 -49 -18 -97 -35 -105 -38 -8 -4 -17 -7 -20 -8 -3
0 -43 -13 -90 -27 -260 -81 -616 -148 -874 -166 -197 -13 -603 -6 -746 13 -14
1 -50 6 -80 10 -104 12 -335 56 -455 86 -446 111 -894 309 -1269 562 -59 39
-286 205 -296 217 -3 3 -34 30 -70 60 -451 379 -873 944 -1085 1450 -15 36
-33 79 -40 95 -94 207 -204 593 -250 880 -11 63 -26 177 -30 225 -3 31 -8 71
-11 90 -9 60 -11 521 -3 620 10 120 19 212 24 242 5 32 36 227 41 263 3 17 9
44 14 60 5 17 11 42 14 56 18 110 131 470 188 604 16 39 37 88 46 110 71 172
240 477 370 665 337 489 745 872 1277 1197 82 50 281 154 375 196 19 8 60 27
91 40 208 93 623 221 814 251 17 3 71 12 120 20 155 26 177 28 380 45 91 8
541 5 625 -4z"/>
<path d="M3625 6190 c-73 -11 -124 -49 -161 -120 -17 -33 -18 -103 -18 -1570
l0 -1535 22 -42 c36 -69 110 -116 180 -115 55 2 105 17 157 50 22 14 65 40 95
57 30 17 123 71 205 119 83 49 166 97 185 108 19 11 127 75 240 141 355 208
459 269 523 306 33 19 152 88 592 346 143 84 276 161 295 172 19 11 65 39 103
61 37 23 69 42 72 42 3 0 29 16 59 35 30 19 58 35 61 35 9 0 109 73 123 89 59
74 56 197 -7 267 -21 24 -220 154 -236 154 -4 0 -59 33 -130 77 -11 7 -33 20
-50 29 -50 28 -1082 631 -1445 845 -69 40 -138 81 -155 90 -16 9 -115 67 -219
128 -104 61 -190 111 -192 111 -2 0 -27 15 -56 34 -120 76 -176 96 -243 86z"/>
</g>
</svg>
