<?xml version="1.0" encoding="utf-8"?>
<!-- Generator: Adobe Illustrator 17.1.0, SVG Export Plug-In . SVG Version: 6.00 Build 0)  -->
<!DOCTYPE svg PUBLIC "-//W3C//DTD SVG 1.1//EN" "http://www.w3.org/Graphics/SVG/1.1/DTD/svg11.dtd">
<svg version="1.1" id="Layer_1" xmlns="http://www.w3.org/2000/svg" xmlns:xlink="http://www.w3.org/1999/xlink" x="0px" y="0px"
	 viewBox="0 0 18.4 27.4" enable-background="new 0 0 18.4 27.4" xml:space="preserve">
<g>
	<path d="M1.4,27.4H0c0-0.5,0-1,0.1-1.2c0.1-0.4,0.2-0.8,0.5-1.1C0.2,24.6,0,24,0,23.2c0-1.7,0.9-2.5,2.7-2.5h12.8
		c0.7,0,1.4,0.3,2,0.8c0.5,0.6,0.8,1.2,0.8,2c0,0.8-0.3,1.5-0.8,2c-0.5,0.6-1.2,0.8-2,0.8h-3.8v-1.5h3.8c0.4,0,0.7-0.1,1-0.4
		c0.3-0.3,0.4-0.6,0.4-0.9c0-0.4-0.1-0.7-0.4-0.9s-0.6-0.4-1-0.4H2.7c-0.8,0-1.3,0.3-1.3,1c0,0.7,0.4,1.1,1.3,1.1h1.5v1.5H2.7
		c-0.9,0-1.3,0.3-1.3,1V27.4z"/>
	<path d="M15.7,19.1h-3.9v-1.5h3.9c0.8,0,1.3-0.3,1.3-1c0-0.7-0.4-1-1.3-1H8.6c-0.2,0-0.4,0.1-0.6,0.3c-0.2,0.3-0.3,0.6-0.3,0.9v0.4
		H6.3v-0.4c0-0.4-0.1-0.7-0.3-0.9c-0.1-0.1-0.2-0.2-0.3-0.2c-0.1,0-0.2-0.1-0.2-0.1H0V14h5.2c0.5,0,0.9,0.1,1.2,0.3
		c0.2,0.1,0.4,0.2,0.6,0.4C7.5,14.3,8,14,8.7,14h7c1.8,0,2.7,0.9,2.7,2.6C18.4,18.2,17.5,19.1,15.7,19.1z"/>
	<path d="M15.7,12.2h-3.9v-1.5h3.9c0.8,0,1.3-0.3,1.3-1c0-0.7-0.4-1-1.3-1H7.9C7,8.7,6.1,8.8,5.4,9.2l-3.2,1.7
		c-0.4,0.2-0.8,0.4-1.3,0.4c-0.3,0-0.6,0.1-0.9,0.1V9.9c0.6,0,1.2-0.2,1.9-0.5L5,7.7C5.5,7.4,6,7.3,6.5,7.2c0.3,0,0.9-0.1,1.6-0.1
		h7.6c1.8,0,2.7,0.8,2.7,2.5C18.4,11.4,17.5,12.2,15.7,12.2z"/>
	<path d="M15.7,5.1H0.1V0h1.4v3.6h5.9c-0.1-0.3-0.1-0.7-0.2-1C7.2,0.9,8.1,0,9.9,0h5.8c1.8,0,2.7,0.9,2.7,2.6
		C18.4,4.3,17.5,5.1,15.7,5.1z M15.7,3.6c0.8,0,1.3-0.3,1.3-1c0-0.7-0.4-1-1.3-1H9.8c-0.8,0-1.2,0.3-1.2,1c0,0.7,0.4,1,1.2,1H15.7z"
		/>
</g>
</svg>
