<?xml version="1.0" encoding="utf-8"?>
<!-- Generator: Adobe Illustrator 17.1.0, SVG Export Plug-In . SVG Version: 6.00 Build 0)  -->
<!DOCTYPE svg PUBLIC "-//W3C//DTD SVG 1.1//EN" "http://www.w3.org/Graphics/SVG/1.1/DTD/svg11.dtd">
<svg version="1.1" id="Layer_1" xmlns="http://www.w3.org/2000/svg" xmlns:xlink="http://www.w3.org/1999/xlink" x="0px" y="0px"
	 viewBox="550.3 -416.7 819.3 1914" enable-background="new 550.3 -416.7 819.3 1914" xml:space="preserve">
<g>
	<g>
		<path d="M1248.4,819.4H1011c4.5-13.4,6.7-29,6.7-46.1c0-77.4-40.9-113.9-120.6-113.9H671.6c-78.9,0-120.6,36.5-120.6,113.9
			c0,75.9,40.9,113.1,120.6,113.1h191.3h35h351.3c78.9,0,120.6-36.5,120.6-113.1V659.4h-64v113.9
			C1304.2,803.8,1285.6,819.4,1248.4,819.4z M671.6,819.4c-35.7,0-54.3-15.6-54.3-46.1c0-31.3,17.9-47.6,54.3-47.6h226.2
			c37.2,0,55.8,15.6,55.8,47.6c0,30.5-18.6,46.1-55.8,46.1h-33.5H671.6z"/>
		<path d="M551.1,1385c0,75.2,40.2,112.4,120.6,112.4h697.3v-66.2H671.6c-37.2,0-55.8-15.6-55.8-46.1s18.6-46.1,55.8-46.1h697.3v-67
			H671.6C591.3,1271.9,551.1,1309.1,551.1,1385z"/>
		<path d="M551.1,466.7c0,75.2,40.2,113.1,120.6,113.1h697.3v-66.2H671.6c-37.2,0-55.8-15.6-55.8-46.1c0-30.5,18.6-46.1,55.8-46.1
			h697.3v-66.2H671.6C591.3,353.6,551.1,391.5,551.1,466.7z"/>
		<path d="M550.3-304.3c0,34.2,8.9,61,25.3,79.6c-16.4,18.6-25.3,45.4-25.3,78.9c0,75.2,40.2,113.1,120.6,113.1h698v-66.2H671.6
			c-37.2,0-55.8-15.6-55.8-46.1c0-29,16.4-44.7,49.1-46.1c2.2,0,4.5,0,6.7,0h367.6v-0.7h0.7v-66.2H671.6c-2.2,0-5.2,0-7.4,0
			c-32.7-2.2-49.1-17.9-49.1-46.1c0-30.5,18.6-46.1,55.8-46.1h697.3v-66.2H670.9C591.3-416.7,550.3-379.4,550.3-304.3z"/>
		<path d="M551.1,1192.3h65.5h372.1h221h38.7c78.9,0,120.6-36.5,120.6-113.1c0-77.4-40.9-113.9-120.6-113.9H987.9
			c-78.9,0-120.6,36.5-120.6,113.9c0,17.9,2.2,32.7,6.7,46.1H616.6V964.6h-65.5V1126V1192.3z M934.3,1079.2
			c0-31.3,17.9-47.6,54.3-47.6h260.5c37.2,0,55.8,15.6,55.8,47.6c0,30.5-18.6,46.1-55.8,46.1h-29.8H988.7
			C952.2,1126,934.3,1109.7,934.3,1079.2z"/>
		<path d="M757.2,102.8c-0.7-0.7-2.2-2.2-3.7-3c-17.9-16.4-45.4-16.4-69.2-16.4h-56.6c-49.1,0-75.9,37.2-75.9,84.8
			c0,49.1,23.8,83.3,75.9,83.3h27.5v-61h-18.6c-17.9,0-23.1-15.6-23.1-21.6c0-8.9,5.2-22.3,18.6-22.3h67c30.5,0,41.7,21.6,47.6,38.7
			c0,0.7,0.7,0.7,0.7,1.5c8.9,58,49.1,86.3,118.3,86.3h382.5c78.9,0,120.6-36.5,120.6-113.1c0-77.4-40.9-113.9-120.6-113.9H865.9
			C810.8,47.7,774.3,65.6,757.2,102.8z M1248.4,114c37.2,0,55.8,15.6,55.8,47.6c0,30.5-18.6,46.1-55.8,46.1H865.9
			c-35.7,0-54.3-15.6-54.3-46.1c0-31.3,17.9-47.6,54.3-47.6H1248.4z"/>
	</g>
</g>
</svg>
