<?xml version="1.0" encoding="utf-8"?>
<!-- Generator: Adobe Illustrator 17.1.0, SVG Export Plug-In . SVG Version: 6.00 Build 0)  -->
<!DOCTYPE svg PUBLIC "-//W3C//DTD SVG 1.1//EN" "http://www.w3.org/Graphics/SVG/1.1/DTD/svg11.dtd">
<svg version="1.1" id="Layer_1" xmlns="http://www.w3.org/2000/svg" xmlns:xlink="http://www.w3.org/1999/xlink" x="0px" y="0px"
	 viewBox="0 0 258 110" enable-background="new 0 0 258 110" xml:space="preserve">
<g>
	<g>
		<path d="M91.5,93.8V61.9c1.8,0.6,3.9,0.9,6.2,0.9c10.4,0,15.3-5.5,15.3-16.2V16.3c0-10.6-4.9-16.2-15.3-16.2
			c-10.2,0-15.2,5.5-15.2,16.2V42v4.7v47.2c0,10.6,4.9,16.2,15.2,16.2H113v-8.6H97.7C93.6,101.3,91.5,98.8,91.5,93.8z M91.5,16.3
			c0-4.8,2.1-7.3,6.2-7.3c4.2,0,6.4,2.4,6.4,7.3v30.4c0,5-2.1,7.5-6.4,7.5c-4.1,0-6.2-2.5-6.2-7.5v-4.5V16.3z"/>
		<path d="M15.5,0.1C5.4,0.1,0.4,5.5,0.4,16.3V110h8.9V16.3c0-5,2.1-7.5,6.2-7.5c4.1,0,6.2,2.5,6.2,7.5V110h9V16.3
			C30.7,5.5,25.7,0.1,15.5,0.1z"/>
		<path d="M138.9,0.1c-10.1,0-15.2,5.4-15.2,16.2V110h8.9V16.3c0-5,2.1-7.5,6.2-7.5c4.1,0,6.2,2.5,6.2,7.5V110h8.9V16.3
			C154.1,5.5,149,0.1,138.9,0.1z"/>
		<path d="M242.5,0c-4.6,0-8.2,1.2-10.7,3.4c-2.5-2.2-6.1-3.4-10.6-3.4c-10.1,0-15.2,5.4-15.2,16.2V110h8.9V16.3
			c0-5,2.1-7.5,6.2-7.5c3.9,0,6,2.2,6.2,6.6c0,0.3,0,0.6,0,0.9v49.4h0.1v0.1h8.9V16.3c0-0.3,0-0.7,0-1c0.3-4.4,2.4-6.6,6.2-6.6
			c4.1,0,6.2,2.5,6.2,7.5v93.7h8.9V16.2C257.6,5.5,252.6,0,242.5,0z"/>
		<path d="M41.4,0.1v8.8v50v29.7v5.2c0,10.6,4.9,16.2,15.2,16.2c10.4,0,15.3-5.5,15.3-16.2v-35c0-10.6-4.9-16.2-15.3-16.2
			c-2.4,0-4.4,0.3-6.2,0.9V8.9h21.6V0.1H50.3H41.4z M56.6,51.6c4.2,0,6.4,2.4,6.4,7.3v35c0,5-2.1,7.5-6.4,7.5
			c-4.1,0-6.2-2.5-6.2-7.5v-4v-31C50.3,54,52.5,51.6,56.6,51.6z"/>
		<path d="M187.8,27.8c0.1-0.1,0.3-0.3,0.4-0.5c2.2-2.4,2.2-6.1,2.2-9.3v-7.6c0-6.6-5-10.2-11.4-10.2c-6.6,0-11.2,3.2-11.2,10.2v3.7
			h8.2v-2.5c0-2.4,2.1-3.1,2.9-3.1c1.2,0,3,0.7,3,2.5V20c0,4.1-2.9,5.6-5.2,6.4c-0.1,0-0.1,0.1-0.2,0.1c-7.8,1.2-11.6,6.6-11.6,15.9
			v51.4c0,10.6,4.9,16.2,15.2,16.2c10.4,0,15.3-5.5,15.3-16.2V42.4C195.2,35,192.8,30.1,187.8,27.8z M186.3,93.8
			c0,5-2.1,7.5-6.4,7.5c-4.1,0-6.2-2.5-6.2-7.5V42.4c0-4.8,2.1-7.3,6.2-7.3c4.2,0,6.4,2.4,6.4,7.3V93.8z"/>
	</g>
</g>
</svg>
