<?xml version="1.0" encoding="utf-8"?>
<!-- Generator: Adobe Illustrator 21.0.0, SVG Export Plug-In . SVG Version: 6.00 Build 0)  -->
<svg version="1.1" id="Layer_1" xmlns="http://www.w3.org/2000/svg" xmlns:xlink="http://www.w3.org/1999/xlink" x="0px" y="0px"
	 viewBox="0 0 129.6 129.6" style="enable-background:new 0 0 129.6 129.6;" xml:space="preserve">
<style type="text/css">
	.st0{fill:#FFFFFF;stroke:#FFFFFF;stroke-width:0;stroke-linecap:round;stroke-linejoin:round;}
	.st1{fill:#FFFFFF;}
</style>
<polyline class="st0" points="10.8,32.4 21.6,32.4 21.6,21.6 "/>
<polyline class="st0" points="10.8,32.4 10.8,21.6 21.6,21.6 "/>
<polyline class="st0" points="21.6,21.6 32.4,21.6 32.4,10.8 "/>
<polyline class="st0" points="21.6,21.6 21.6,10.8 32.4,10.8 "/>
<polyline class="st0" points="10.8,32.4 0,32.4 0,43.2 0,54 0,64.8 0,75.6 0,86.4 0,97.2 10.8,97.2 "/>
<polyline class="st0" points="10.8,97.2 10.8,86.4 10.8,75.6 10.8,64.8 10.8,54 10.8,43.2 10.8,32.4 "/>
<polyline class="st0" points="108,21.6 108,32.4 118.8,32.4 "/>
<polyline class="st0" points="118.8,32.4 118.8,21.6 108,21.6 "/>
<polyline class="st0" points="97.2,10.8 97.2,21.6 108,21.6 "/>
<polyline class="st0" points="108,21.6 108,10.8 97.2,10.8 "/>
<polyline class="st0" points="32.4,10.8 43.2,10.8 54,10.8 64.8,10.8 75.6,10.8 86.4,10.8 97.2,10.8 "/>
<polyline class="st0" points="97.2,10.8 97.2,0 86.4,0 75.6,0 64.8,0 54,0 43.2,0 32.4,0 32.4,10.8 "/>
<polyline class="st0" points="21.6,108 21.6,97.2 10.8,97.2 "/>
<polyline class="st0" points="10.8,97.2 10.8,108 21.6,108 "/>
<polyline class="st0" points="118.8,97.2 118.8,108 108,108 "/>
<polyline class="st0" points="118.8,97.2 108,97.2 108,108 "/>
<polygon class="st1" points="90.9,54 80.1,54 80.1,43.2 69.3,43.2 69.3,32.4 58.5,32.4 58.5,21.6 47.7,21.6 47.7,32.4 47.7,43.2 
	47.7,54 47.7,64.8 47.7,75.6 47.7,86.4 47.7,97.2 47.7,108 58.5,108 58.5,97.2 69.3,97.2 69.3,86.4 80.1,86.4 80.1,75.6 90.9,75.6 
	90.9,64.8 "/>
<polyline class="st0" points="118.8,32.4 118.8,43.2 118.8,54 118.8,64.8 118.8,75.6 118.8,86.4 118.8,97.2 "/>
<polyline class="st0" points="118.8,32.4 129.6,32.4 129.6,43.2 129.6,54 129.6,64.8 129.6,75.6 129.6,86.4 129.6,97.2 118.8,97.2 
	"/>
<polyline class="st0" points="21.6,108 21.6,118.8 32.4,118.8 "/>
<polyline class="st0" points="32.4,118.8 32.4,108 21.6,108 "/>
<polyline class="st0" points="108,108 97.2,108 97.2,118.8 "/>
<polyline class="st0" points="108,108 108,118.8 97.2,118.8 "/>
<polyline class="st0" points="32.4,118.8 32.4,129.6 43.2,129.6 54,129.6 64.8,129.6 75.6,129.6 86.4,129.6 97.2,129.6 97.2,118.8 
	"/>
<polyline class="st0" points="32.4,118.8 43.2,118.8 54,118.8 64.8,118.8 75.6,118.8 86.4,118.8 97.2,118.8 "/>
</svg>
