<?xml version="1.0" encoding="utf-8"?>
<!-- Generator: Adobe Illustrator 17.1.0, SVG Export Plug-In . SVG Version: 6.00 Build 0)  -->
<!DOCTYPE svg PUBLIC "-//W3C//DTD SVG 1.1//EN" "http://www.w3.org/Graphics/SVG/1.1/DTD/svg11.dtd">
<svg version="1.1" id="Layer_1" xmlns="http://www.w3.org/2000/svg" xmlns:xlink="http://www.w3.org/1999/xlink" x="0px" y="0px"
	 viewBox="0 0 40.8 44.5" enable-background="new 0 0 40.8 44.5" xml:space="preserve">
<g>
	<path fill="#3B4960" d="M33.5,29.8c-1.8,0-3.5,0.7-4.8,1.8l-14.1-8.1c0.1-0.4,0.1-0.9,0.1-1.3c0-0.5,0-0.9-0.1-1.3l14.1-8.1
		c1.3,1.1,3,1.8,4.8,1.8c4.1,0,7.4-3.3,7.4-7.4S37.6,0,33.5,0s-7.4,3.3-7.4,7.4c0,0.5,0,0.9,0.1,1.3l-14.1,8.1
		c-1.3-1.1-3-1.8-4.8-1.8c-4.1,0-7.4,3.3-7.4,7.4s3.3,7.4,7.4,7.4c1.8,0,3.5-0.7,4.8-1.8l14.1,8.1c-0.1,0.4-0.1,0.9-0.1,1.3
		c0,4.1,3.3,7.4,7.4,7.4c4.1,0,7.4-3.3,7.4-7.4S37.6,29.8,33.5,29.8z"/>
</g>
</svg>
